<svg width="16" height="16" viewBox="0 0 16 16" fill="none" xmlns="http://www.w3.org/2000/svg">
<path d="M14 0H2C0.89543 0 0 0.89543 0 2V14C0 15.1046 0.89543 16 2 16H14C15.1046 16 16 15.1046 16 14V2C16 0.89543 15.1046 0 14 0Z" fill="#E42575"/>
<path d="M10.2951 6.2779L10.9808 7.08355C11.0593 7.17405 11.1289 7.2485 11.157 7.2908C11.3621 7.4946 11.4771 7.77005 11.4769 8.05705C11.4576 8.3957 11.237 8.6263 11.0326 8.87295L10.5528 9.43635L10.3025 9.72825C10.2935 9.7383 10.2877 9.75075 10.2858 9.764C10.2839 9.7773 10.286 9.7908 10.2919 9.8029C10.2977 9.81505 10.307 9.8252 10.3186 9.83215C10.3302 9.8391 10.3437 9.84255 10.3573 9.8421H12.8587C13.2408 9.8421 13.7221 10.1631 13.6939 10.6506C13.6932 10.8722 13.6035 11.0845 13.4445 11.2411C13.2855 11.3978 13.0702 11.4862 12.8453 11.4869H8.9281C8.6704 11.4869 7.9773 11.5147 7.78325 10.9236C7.742 10.8 7.73635 10.6677 7.767 10.5412C7.82335 10.3541 7.9126 10.1783 8.0306 10.0216C8.22755 9.7297 8.44085 9.4378 8.65115 9.15465C8.92215 8.7839 9.2006 8.42485 9.47455 8.04685C9.4843 8.03455 9.48955 8.0194 9.48955 8.0038C9.48955 7.9882 9.4843 7.97305 9.47455 7.96075L8.47935 6.7931C8.47285 6.78465 8.46445 6.7778 8.4548 6.77305C8.4452 6.76835 8.43455 6.7659 8.4238 6.7659C8.41305 6.7659 8.4024 6.76835 8.3928 6.77305C8.38315 6.7778 8.37475 6.78465 8.36825 6.7931C8.1017 7.1478 6.93465 8.71825 6.68585 9.0364C6.43705 9.3546 5.8239 9.3721 5.48475 9.0364L3.92825 7.4966C3.91831 7.4868 3.90563 7.4801 3.89182 7.47735C3.878 7.47465 3.86368 7.47605 3.85067 7.48135C3.83766 7.48665 3.82655 7.49565 3.81874 7.50725C3.81093 7.5188 3.80678 7.53235 3.80681 7.54625V10.5076C3.81048 10.7177 3.74733 10.9238 3.62622 11.0968C3.50512 11.2698 3.33212 11.4011 3.13148 11.4723C3.00327 11.5163 2.86625 11.5294 2.73185 11.5106C2.59745 11.4918 2.46956 11.4416 2.35884 11.3642C2.24813 11.2868 2.15779 11.1844 2.09537 11.0656C2.03295 10.9468 2.00025 10.8151 2 10.6813V5.35695C2.00893 5.16505 2.07898 4.98084 2.20022 4.83045C2.32145 4.68005 2.48769 4.57114 2.67533 4.51918C2.83628 4.47692 3.00571 4.47734 3.16644 4.5204C3.32717 4.56346 3.4735 4.64763 3.59059 4.76438L5.98385 7.1259C5.99105 7.13305 5.9997 7.1386 6.0093 7.1421C6.01885 7.1456 6.0291 7.147 6.03925 7.14615C6.04945 7.1453 6.0593 7.1423 6.06815 7.13725C6.077 7.13225 6.08465 7.1254 6.0905 7.11715L7.7907 4.79795C7.86925 4.7038 7.96775 4.62771 8.0793 4.57502C8.19085 4.52233 8.3127 4.4943 8.4364 4.4929H12.8587C12.9797 4.4931 13.0993 4.51876 13.2094 4.56817C13.3196 4.61758 13.4177 4.6896 13.4974 4.77941C13.577 4.86922 13.6363 4.97475 13.6712 5.08895C13.7061 5.20315 13.7159 5.3234 13.6999 5.4416C13.6687 5.6467 13.5631 5.83365 13.4027 5.96785C13.2423 6.10205 13.0379 6.17435 12.8276 6.17135H10.3513C10.3389 6.17165 10.3268 6.17525 10.3162 6.18175C10.3056 6.1882 10.297 6.1974 10.2913 6.20825C10.2855 6.21915 10.2829 6.23135 10.2835 6.2436C10.2842 6.25585 10.2882 6.2677 10.2951 6.2779Z" fill="#F5F3F7"/>
</svg>
