<svg width="16" height="16" viewBox="0 0 16 16" fill="none" xmlns="http://www.w3.org/2000/svg">
<path d="M8.62589 0H4.38702L1.19102 6.51334C0.324931 8.27841 -0.108114 9.16093 0.0230928 9.83511C0.138506 10.4281 0.550396 10.9103 1.19973 11.2124C1.93792 11.5559 3.12493 11.5559 5.49892 11.5559H8.60743L9.94768 8.82452C10.0199 8.67743 10.056 8.60388 10.045 8.5477C10.0354 8.49829 10.0011 8.45811 9.94696 8.43293C9.88544 8.4043 9.78654 8.4043 9.5887 8.4043H6.76277C5.97144 8.4043 5.57578 8.4043 5.32971 8.28979C5.11327 8.18909 4.97596 8.02837 4.9375 7.83069C4.89377 7.60597 5.03812 7.31179 5.32682 6.72345L8.62589 0Z" fill="white"/>
<path d="M7.37416 16H11.613L14.809 9.48667C15.6751 7.7216 16.1082 6.83908 15.977 6.1649C15.8615 5.5719 15.4496 5.08976 14.8003 4.78759C14.0621 4.44409 12.8751 4.44409 10.5012 4.44409H7.39262L6.05237 7.17549C5.98019 7.32258 5.94412 7.39613 5.95505 7.45231C5.96465 7.50172 5.99898 7.5419 6.05311 7.56708C6.11461 7.59571 6.21354 7.59571 6.41137 7.59571H9.2373C10.0286 7.59571 10.4243 7.59571 10.6703 7.71019C10.8868 7.81092 11.0241 7.97162 11.0626 8.1693C11.1063 8.39401 10.9619 8.6882 10.6733 9.27656L7.37416 16Z" fill="white"/>
</svg>
