<svg width="15" height="16" viewBox="0 0 15 16" fill="none" xmlns="http://www.w3.org/2000/svg">
<g clip-path="url(#clip0_103_8621)">
<path d="M14.6694 5.01381V10.9225C14.6694 11.5684 14.3114 12.1614 13.733 12.4844L8.41164 15.4387C8.22985 15.5393 8.03705 15.6081 7.83323 15.6505C7.80018 15.6558 7.76713 15.6611 7.72857 15.6664C7.69001 15.6716 7.65695 15.6716 7.6239 15.6769C7.60738 15.6769 7.59085 15.6769 7.57433 15.6822C7.51373 15.6875 7.45314 15.6875 7.39254 15.6822C7.365 15.6822 7.34296 15.6822 7.31542 15.6769H7.29339C7.24381 15.6716 7.18872 15.6664 7.13914 15.6558L7.11711 15.6505L7.08406 15.6452C6.89126 15.6081 6.70396 15.5393 6.53319 15.444L1.21186 12.4844C0.633452 12.1614 0.275391 11.5684 0.275391 10.9225V5.01381C0.275391 4.86556 0.291917 4.72261 0.330477 4.57966C0.330477 4.56907 0.335986 4.56378 0.335986 4.55319C0.335986 4.5426 0.335986 4.54789 0.335986 4.5426C0.352511 4.50024 0.369037 4.45259 0.385563 4.41024C0.402089 4.36258 0.424124 4.30964 0.446158 4.26199C0.457175 4.24081 0.468193 4.21963 0.47921 4.19845C0.495736 4.16669 0.51777 4.12963 0.534296 4.09786C0.567348 4.03962 0.605908 3.98667 0.649978 3.92843C0.798711 3.73254 0.991513 3.5737 1.21186 3.45193L6.5387 0.497595C7.11711 0.17463 7.83323 0.17463 8.41715 0.497595L13.7385 3.45193C13.9423 3.56841 14.1241 3.71665 14.2728 3.89667C14.2893 3.91785 14.3059 3.93902 14.3279 3.9655C14.3499 3.99197 14.361 4.00785 14.372 4.02903C14.394 4.0608 14.416 4.09786 14.4381 4.13492C14.4601 4.17198 14.4821 4.20904 14.4987 4.24611C14.5097 4.27258 14.5207 4.29376 14.5317 4.32023C14.5483 4.35729 14.5593 4.39435 14.5758 4.42612C14.6033 4.50554 14.6254 4.58495 14.6419 4.66967C14.6639 4.78614 14.6694 4.90262 14.6694 5.01381Z" fill="#2BB673"/>
<g opacity="0.54">
<path d="M14.6747 4.59568C14.6472 4.62744 14.6141 4.65392 14.5756 4.6751L12.5319 5.7287C12.598 5.73929 12.6696 5.73929 12.7412 5.734C12.8734 5.734 13.0111 5.73929 13.1433 5.74988C13.2149 5.75517 13.2921 5.78694 13.2866 5.86636C13.281 5.94578 13.2039 6.03049 13.1433 6.08343C12.9946 6.20521 12.8183 6.28463 12.6255 6.32169C12.4327 6.35875 12.2344 6.35345 12.0471 6.3111C11.959 6.28992 11.8708 6.25286 11.7992 6.19462C11.7772 6.17873 11.7552 6.16285 11.7386 6.14167L9.3589 7.37C9.58476 7.44942 9.83264 7.39647 10.0695 7.35941C10.1521 7.34882 10.2403 7.35412 10.2788 7.43883C10.3119 7.51295 10.2844 7.59766 10.2568 7.66649C10.1797 7.85709 10.0475 8.02122 9.8712 8.1377C9.68942 8.24889 9.49662 8.21712 9.33136 8.09535C9.16059 7.96828 9.00635 7.82003 8.87414 7.65061C8.86863 7.64531 8.86312 7.63472 8.86312 7.62943L8.15251 7.99475C8.02581 8.05828 7.94318 8.18535 7.94318 8.32301L7.91013 10.8644C7.92115 10.8644 7.92666 10.8591 7.93768 10.8591C7.99827 10.8326 8.04234 10.785 8.05887 10.7267C8.0809 10.6632 8.09192 10.5996 8.09743 10.5361L8.13048 10.3032C8.1415 10.229 8.15251 10.1602 8.16353 10.0861C8.16904 10.0331 8.18556 9.98019 8.22412 9.93783C8.25718 9.90077 8.31777 9.88489 8.36735 9.90607C8.40591 9.92725 8.43896 9.96431 8.44998 10.0067C8.47201 10.0596 8.48303 10.1178 8.49405 10.1708C8.50506 10.1973 8.51057 10.2237 8.51057 10.2555C8.51608 10.2979 8.5271 10.3402 8.53261 10.3826C8.53812 10.4408 8.54362 10.4938 8.54362 10.552C8.75846 10.4832 8.85762 10.229 8.95126 10.049C9.00635 9.94313 9.05593 9.83194 9.11652 9.72605C9.1661 9.64664 9.25424 9.56722 9.3589 9.59899C9.43051 9.63075 9.48009 9.69958 9.48009 9.77371C9.49111 9.86901 9.4856 9.95901 9.46357 10.049C9.44704 10.1496 9.40848 10.2396 9.34789 10.3243C9.27627 10.409 9.19364 10.4779 9.09449 10.5255C8.92923 10.6102 8.75295 10.6738 8.56566 10.7002L8.55464 10.7055C8.55464 10.7055 8.54913 10.7055 8.54913 10.7108C8.54913 10.732 8.54362 10.7585 8.54362 10.7797C8.48303 11.1503 8.25167 11.4785 7.91564 11.6638L7.89911 12.9875C7.95971 12.9981 8.02031 12.9928 8.07539 12.9822C8.23514 12.9504 8.37837 12.8763 8.49405 12.7704C8.58218 12.6857 8.66481 12.5904 8.76948 12.5216C8.85762 12.4686 8.98982 12.4263 9.08347 12.4898C9.19364 12.5586 9.1661 12.6963 9.11652 12.7969C9.08898 12.8498 9.06144 12.8975 9.02838 12.9451C9.20466 13.0139 9.41399 13.0139 9.59577 12.9875C9.78307 12.961 9.95934 12.8975 10.1191 12.7969C10.1521 12.7757 10.1797 12.7545 10.2127 12.728C10.1081 12.6698 10.0254 12.5798 9.97036 12.4792C9.89875 12.3574 9.84366 12.2304 9.81061 12.0927C9.74451 11.8597 9.76103 11.6056 9.86019 11.3832C9.90426 11.2773 9.98138 11.182 10.0805 11.1185C10.1742 11.0603 10.2954 11.0656 10.3835 11.1291C10.4441 11.182 10.4716 11.2615 10.4661 11.3356C10.6149 11.3674 10.7746 11.3144 10.9013 11.235C11.039 11.1503 11.1547 11.0391 11.2373 10.9067C11.2429 10.8961 11.2484 10.8803 11.2594 10.8697C11.0445 10.9014 10.8187 10.9014 10.6039 10.8697C10.4992 10.8538 10.3945 10.822 10.3009 10.7744C10.2072 10.7161 10.1356 10.6367 10.086 10.5414C10.0254 10.4461 10.0034 10.3402 10.0144 10.229C10.031 10.139 10.1026 10.0331 10.2127 10.0437C10.3284 10.049 10.3945 10.1549 10.4496 10.2396C10.4937 10.3137 10.5488 10.3773 10.6149 10.4408C10.703 10.3985 10.7471 10.2926 10.7746 10.2026C10.8077 10.0861 10.8297 9.9696 10.8352 9.84783C10.8462 9.74723 10.8628 9.64134 10.8903 9.54075C10.9123 9.44545 10.9619 9.35544 11.028 9.27602C11.0941 9.20719 11.1988 9.17543 11.2814 9.23366C11.364 9.2919 11.3806 9.40309 11.3971 9.4931C11.4081 9.55663 11.4081 9.62546 11.3916 9.68899C11.4852 9.68899 11.5734 9.65723 11.6395 9.59369C11.7331 9.50368 11.7992 9.38721 11.8378 9.26543C11.8598 9.20719 11.8819 9.14366 11.9039 9.08542C11.9259 9.02718 11.9424 8.96364 11.9645 8.90541C11.9975 8.8154 12.0747 8.7201 12.1848 8.72539C12.284 8.73598 12.3721 8.80481 12.3997 8.89482C12.4272 9.00071 12.4272 9.11189 12.3886 9.21778C12.3225 9.44015 12.1518 9.60428 11.948 9.72605C11.7607 9.83724 11.5458 9.92725 11.32 9.89548C11.2814 9.9696 11.2429 10.0437 11.1933 10.1178C11.0831 10.2926 10.9344 10.4567 10.7306 10.5308C10.8187 10.5732 10.9123 10.6102 11.0115 10.6314C11.0776 10.6473 11.1382 10.6579 11.2043 10.6685C11.2484 10.6791 11.2979 10.6844 11.3475 10.6791C11.3751 10.6208 11.3971 10.5626 11.4191 10.5096C11.4412 10.4567 11.4632 10.372 11.5238 10.3243C11.5734 10.2926 11.634 10.2767 11.6946 10.2873C11.959 10.319 11.9204 10.5891 11.8433 10.7955C12.1242 10.875 12.4327 10.7902 12.631 10.5838C12.6751 10.5414 12.7137 10.4885 12.7412 10.4355C12.7687 10.3826 12.7908 10.3243 12.8238 10.2714C12.8569 10.2237 12.9065 10.1867 12.9615 10.1655C13.0166 10.1337 13.0827 10.1284 13.1488 10.139C13.2039 10.1655 13.248 10.2026 13.2755 10.2502C13.3141 10.3032 13.3472 10.3614 13.3692 10.4196C13.4022 10.5467 13.3361 10.6685 13.248 10.7585C13.0717 10.9279 12.8348 11.0391 12.587 11.0656C12.306 11.1026 12.0196 11.0603 11.7386 11.0073C11.6009 11.2244 11.364 11.3726 11.1272 11.4679C10.9013 11.558 10.6534 11.6003 10.4055 11.5844C10.3835 11.6744 10.356 11.7591 10.3339 11.8492C10.2899 12.0503 10.2844 12.2992 10.4276 12.458L10.4551 12.4104C10.5433 12.278 10.6589 12.1192 10.8407 12.1033C11.0225 12.0874 11.0831 12.2886 11.0721 12.4263C11.0556 12.5904 10.9784 12.7439 10.8517 12.8551C10.714 12.9769 10.5543 13.0669 10.378 13.1198C10.1852 13.1834 9.98689 13.2363 9.78858 13.2681C9.45255 13.3157 9.1055 13.3104 8.76948 13.2469C8.62625 13.3899 8.4665 13.5063 8.28472 13.6016C8.16353 13.6652 8.03132 13.7234 7.92666 13.824C7.90462 13.8452 7.8881 13.8664 7.87157 13.8875L7.84954 15.7565C7.84954 15.7777 7.84403 15.8041 7.83852 15.8253C7.80547 15.8306 7.76691 15.8306 7.73386 15.8359C7.71733 15.8359 7.7008 15.8359 7.68428 15.8412C7.62368 15.8465 7.56309 15.8465 7.50249 15.8412C7.47495 15.8412 7.45292 15.8412 7.42537 15.8359H7.40334C7.38681 15.8147 7.3813 15.783 7.3813 15.7565L7.40334 14.1258C7.37579 14.0411 7.33173 13.967 7.26562 13.9034L7.26011 13.8981C7.16096 13.7975 7.02875 13.7393 6.90205 13.6758C6.72027 13.5805 6.56052 13.464 6.41729 13.321C6.08127 13.3846 5.73973 13.3951 5.3982 13.3422C5.19438 13.3104 5.00158 13.2628 4.80877 13.194C4.6325 13.141 4.47275 13.051 4.33503 12.9292C4.20833 12.8128 4.13121 12.6645 4.11469 12.5004C4.10367 12.3627 4.15876 12.1615 4.34605 12.1774C4.53334 12.1933 4.64351 12.3521 4.73165 12.4845L4.7592 12.5321C4.90242 12.368 4.89691 12.1245 4.85284 11.9233C4.83081 11.8333 4.80877 11.7433 4.78123 11.6585C4.53334 11.6744 4.27995 11.6321 4.04858 11.5368C3.81171 11.4415 3.57484 11.2932 3.43712 11.0762C3.15618 11.1291 2.86974 11.1715 2.5888 11.1344C2.34091 11.1079 2.10404 11.002 1.92776 10.8273C1.83962 10.7373 1.76801 10.6155 1.80657 10.4885C1.8286 10.4249 1.86166 10.3667 1.90022 10.319C1.92776 10.2714 1.97183 10.229 2.02692 10.2079C2.09302 10.192 2.15912 10.2026 2.21421 10.2343C2.26929 10.2555 2.31887 10.2926 2.35192 10.3402C2.38498 10.3932 2.40701 10.4514 2.43455 10.5043C2.4621 10.5573 2.50066 10.6049 2.54473 10.6526C2.74304 10.8591 3.05152 10.9438 3.33246 10.8644C3.25534 10.6579 3.22229 10.3879 3.48119 10.3561C3.54179 10.3455 3.60238 10.3561 3.65196 10.3932C3.70705 10.4355 3.72908 10.5149 3.75662 10.5785C3.78417 10.642 3.8062 10.6949 3.82824 10.7479C3.87782 10.7479 3.92188 10.7479 3.97146 10.7373C4.03757 10.7267 4.09816 10.7161 4.16426 10.7002C4.26342 10.6791 4.35707 10.6473 4.4452 10.5996C4.24138 10.5255 4.09816 10.3614 3.98248 10.1867C3.93841 10.1178 3.89434 10.0437 3.85578 9.96431C3.63544 9.99607 3.41509 9.90607 3.2278 9.79488C3.02398 9.67311 2.85321 9.51427 2.78711 9.28661C2.74855 9.18072 2.74304 9.06954 2.77609 8.96364C2.80363 8.86834 2.89177 8.80481 2.99093 8.79422C3.1011 8.78893 3.17822 8.88423 3.21127 8.97423C3.23331 9.03247 3.24983 9.09601 3.27187 9.15425C3.2939 9.21249 3.31593 9.27602 3.33797 9.33426C3.37653 9.45603 3.44814 9.56722 3.53628 9.66252C3.60238 9.72605 3.69052 9.75782 3.78417 9.75782C3.77315 9.69429 3.76764 9.62546 3.77866 9.56192C3.78968 9.47192 3.81722 9.36073 3.89434 9.30249C3.97146 9.24425 4.08714 9.28132 4.14774 9.34485C4.21384 9.42427 4.25791 9.51427 4.28545 9.60957C4.313 9.71017 4.32952 9.81077 4.34054 9.91666C4.35156 10.0331 4.37359 10.1549 4.40113 10.2714C4.42868 10.3614 4.47275 10.4673 4.56089 10.5096C4.62148 10.4514 4.68208 10.3826 4.72614 10.3084C4.78123 10.2237 4.84733 10.1178 4.96302 10.1126C5.0787 10.1073 5.1448 10.2079 5.16133 10.2979C5.17234 10.4038 5.15031 10.5149 5.08971 10.6102C5.04014 10.7055 4.96852 10.7902 4.87488 10.8432C4.78123 10.8961 4.68208 10.9279 4.57741 10.9385C4.36257 10.9703 4.13672 10.9703 3.92188 10.9385C3.92739 10.9491 3.9329 10.965 3.94392 10.9756C4.02655 11.1079 4.14223 11.2244 4.27994 11.3038C4.40664 11.3779 4.56639 11.4362 4.71513 11.4044C4.70962 11.325 4.73716 11.2509 4.79776 11.1979C4.88589 11.1344 5.00708 11.1291 5.10073 11.1873C5.19989 11.2509 5.27701 11.3462 5.32108 11.4521C5.42023 11.6744 5.43676 11.9286 5.37065 12.1615C5.3376 12.2939 5.28252 12.4263 5.2109 12.548C5.15582 12.6486 5.07319 12.7386 4.96852 12.7969C4.99607 12.8233 5.02912 12.8445 5.06217 12.8657C5.22192 12.9663 5.3982 13.0298 5.58549 13.0563C5.76728 13.0828 5.9766 13.0881 6.15288 13.0139C6.11983 12.9663 6.09228 12.9133 6.06474 12.8657C6.01516 12.7704 5.98211 12.6327 6.09779 12.5586C6.19695 12.5004 6.32365 12.5374 6.41179 12.5904C6.52196 12.6539 6.59908 12.7545 6.68722 12.8392C6.8029 12.9504 6.94612 13.0192 7.10587 13.051C7.15545 13.0616 7.20503 13.0616 7.25461 13.0563L7.27113 11.7327C6.9296 11.5474 6.69273 11.2191 6.63764 10.8432C6.63213 10.822 6.63213 10.7955 6.63213 10.7744H6.62662L6.6156 10.7691C6.42831 10.7426 6.24653 10.6844 6.08127 10.5944C5.98211 10.5467 5.89397 10.4779 5.82787 10.3932C5.76728 10.3137 5.72871 10.2184 5.71219 10.1178C5.69015 10.0278 5.68465 9.93254 5.69566 9.84253C5.69566 9.76841 5.74524 9.69958 5.81685 9.66781C5.92152 9.63605 6.00965 9.71547 6.05372 9.79488C6.11432 9.89548 6.1639 10.0067 6.21898 10.1178C6.30712 10.2979 6.41179 10.552 6.62662 10.6208C6.62662 10.5626 6.63213 10.5096 6.63764 10.4514C6.64315 10.409 6.64866 10.3667 6.65967 10.3243C6.65967 10.2979 6.66518 10.2661 6.6762 10.2396C6.68722 10.1814 6.70374 10.1284 6.72027 10.0755C6.73129 10.0331 6.76434 9.99607 6.8029 9.9749C6.85248 9.95372 6.90756 9.9696 6.94612 10.0067C6.98468 10.049 7.00121 10.102 7.00672 10.1549C7.01773 10.229 7.02875 10.2979 7.03977 10.372L7.07282 10.6049C7.07833 10.6685 7.09486 10.7373 7.11138 10.7955C7.12791 10.8538 7.17198 10.9014 7.23257 10.9279C7.2491 10.9332 7.27113 10.9385 7.28766 10.9385L7.32071 8.31242C7.32071 8.18535 7.24359 8.06358 7.12791 8.01063L6.36772 7.64531C6.36772 7.6559 6.36221 7.6612 6.3567 7.66649C6.22449 7.83592 6.07025 7.98416 5.89948 8.11123C5.73422 8.233 5.54142 8.26477 5.35964 8.15359C5.18336 8.03711 5.05115 7.87298 4.97403 7.68237C4.94098 7.61355 4.91895 7.52883 4.952 7.45471C4.99056 7.37529 5.0787 7.3647 5.16133 7.37529C5.38718 7.41235 5.62405 7.4653 5.8499 7.39647L3.40958 6.23168L3.37102 6.26345C3.29941 6.31639 3.21127 6.35875 3.12313 6.37993C2.93584 6.42758 2.73753 6.42758 2.54473 6.39051C2.35192 6.35345 2.17565 6.27404 2.02692 6.15226C1.96632 6.09932 1.88369 6.0199 1.88369 5.93519C1.88369 5.85048 1.96081 5.8293 2.02692 5.81871C2.15912 5.80812 2.29684 5.79753 2.42905 5.80282C2.45659 5.80282 2.49515 5.80282 2.5282 5.80812L0.589163 4.87629C0.523059 4.84452 0.467973 4.79157 0.44043 4.72275C0.44043 4.71745 0.44043 4.71745 0.44043 4.71216C0.451447 4.66451 0.467973 4.61686 0.484499 4.5692C0.501025 4.52155 0.523059 4.46861 0.545094 4.42096C0.556111 4.39978 0.567128 4.3786 0.578145 4.35742C0.666284 4.31507 0.765439 4.31507 0.853577 4.35742L2.45659 5.12513C2.39599 5.05101 2.3354 4.98218 2.26929 4.91335C2.19768 4.83922 2.13158 4.75981 2.07098 4.68039C2.01039 4.60097 1.97734 4.51097 1.96632 4.41566C1.96632 4.32566 2.03793 4.25153 2.13158 4.25153C2.22523 4.24095 2.30235 4.29919 2.37396 4.35742C2.5282 4.48449 2.64939 4.63803 2.74855 4.80746C2.84219 4.97688 2.90279 5.16219 2.93033 5.35279L4.60495 6.15226C4.58843 6.08343 4.56639 6.0199 4.53334 5.95637C4.47826 5.83989 4.41766 5.72341 4.35707 5.60693C4.29647 5.49574 4.24689 5.37926 4.20833 5.25749C4.1863 5.17278 4.15325 5.03512 4.22486 4.961C4.36808 4.82334 4.62699 5.07218 4.71513 5.16748C4.86386 5.33161 4.96302 5.5328 5.00158 5.74988C5.01259 5.824 5.07319 6.19462 5.00708 6.33757L6.35119 6.97821C6.35119 6.95703 6.35119 6.93055 6.34568 6.90938C6.33466 6.87232 6.31814 6.83525 6.30712 6.79819C6.2961 6.76113 6.26856 6.71877 6.25203 6.68171C6.19695 6.55994 6.1639 6.41169 6.26856 6.3058C6.30712 6.26345 6.36772 6.24227 6.4228 6.24756C6.4834 6.25815 6.53848 6.29521 6.57154 6.34286C6.64866 6.45405 6.68722 6.59171 6.67069 6.72936C6.66518 6.85643 6.62662 6.97821 6.55501 7.0788L7.41436 7.49177C7.55207 7.55531 7.70631 7.55531 7.84403 7.48648L8.66481 7.06292C8.65931 7.05762 8.6538 7.05233 8.64829 7.04703C8.64278 7.04174 8.63727 7.03644 8.63176 7.03115V7.02586C8.54362 6.92526 8.51057 6.78231 8.49956 6.65524C8.48303 6.51758 8.51608 6.38522 8.59871 6.26874C8.63176 6.22109 8.68685 6.18403 8.74744 6.17344C8.80804 6.16815 8.86313 6.18932 8.90169 6.23168C9.00635 6.33228 8.9733 6.48582 8.91821 6.60759C8.90169 6.64995 8.87965 6.68701 8.86312 6.72407C8.8466 6.76113 8.84109 6.79819 8.82456 6.83525C8.81355 6.8829 8.81355 6.92526 8.82456 6.97291L10.1687 6.27933C10.086 6.14697 10.1521 5.74988 10.1632 5.67576C10.2017 5.45868 10.3009 5.25749 10.4496 5.09336C10.5377 4.99806 10.7967 4.75451 10.9344 4.88688C11.0115 4.9557 10.9784 5.09336 10.9509 5.18337C10.9123 5.30514 10.8628 5.42162 10.8022 5.5328C10.7471 5.64928 10.681 5.76576 10.6259 5.88224C10.5928 5.94578 10.5708 6.01461 10.5543 6.08343L12.0526 5.31044C12.0747 5.09336 12.1353 4.88158 12.2454 4.68568C12.3391 4.51626 12.4658 4.36272 12.62 4.23565C12.6861 4.17741 12.7632 4.12447 12.8624 4.12976C12.956 4.13506 13.0276 4.20918 13.0276 4.29389C13.0166 4.38919 12.9836 4.4792 12.923 4.55862C12.8624 4.64333 12.7963 4.72275 12.7247 4.79687C12.631 4.88688 12.5484 4.99277 12.4768 5.09866L14.2836 4.16682C14.3277 4.14564 14.3718 4.13506 14.4213 4.12976C14.4379 4.15094 14.4544 4.17212 14.4654 4.19329C14.4874 4.22506 14.5095 4.26212 14.5315 4.29389C14.548 4.30448 14.559 4.32036 14.5701 4.34154C14.5811 4.36272 14.5866 4.3839 14.5921 4.40507C14.6031 4.43155 14.6141 4.45273 14.6252 4.4792C14.6472 4.52155 14.6582 4.55862 14.6747 4.59568Z" fill="#231F20"/>
<path d="M7.59056 15.8623C7.5575 15.8623 7.52996 15.8623 7.49691 15.8623C7.47488 15.8623 7.44733 15.8623 7.41979 15.857H7.39225L7.38674 15.8464C7.37021 15.8199 7.35919 15.7882 7.35919 15.7564L7.38123 14.131C7.35369 14.0516 7.30962 13.9775 7.25453 13.9192L7.24902 13.9139C7.16639 13.8345 7.06173 13.7816 6.95706 13.7286C6.93503 13.718 6.9185 13.7074 6.89647 13.6968C6.72019 13.6015 6.55493 13.4851 6.41171 13.3474C6.07568 13.4109 5.73415 13.4162 5.39812 13.3686C5.1943 13.3368 4.99599 13.2839 4.80319 13.2203C4.62691 13.1674 4.46165 13.0721 4.32394 12.9503C4.19724 12.8338 4.11461 12.675 4.09808 12.5056C4.09258 12.4156 4.1091 12.2885 4.18622 12.2144C4.23029 12.172 4.28538 12.1561 4.34597 12.1614C4.53327 12.1773 4.65446 12.3309 4.7481 12.4791L4.76463 12.5003C4.89684 12.3256 4.86929 12.0714 4.83624 11.9285C4.81972 11.8649 4.80319 11.7961 4.78666 11.7326L4.77014 11.6796C4.52225 11.6902 4.27436 11.6479 4.04851 11.5526C3.85571 11.4731 3.59129 11.3302 3.43705 11.0972C3.16713 11.1502 2.88068 11.1872 2.59423 11.1502C2.34083 11.1237 2.10396 11.0125 1.92218 10.8378C1.83955 10.7531 1.75141 10.626 1.79548 10.4831C1.81751 10.4195 1.85056 10.3613 1.89463 10.3031C1.92218 10.2501 1.97175 10.2131 2.02684 10.1866C2.09845 10.1707 2.17557 10.1813 2.23617 10.2131C2.29125 10.2342 2.34634 10.2713 2.37939 10.3242C2.40143 10.356 2.41795 10.3878 2.43448 10.4248C2.4455 10.446 2.45651 10.4672 2.46753 10.4884C2.49507 10.5413 2.53363 10.589 2.57219 10.6313C2.765 10.8325 3.04594 10.9119 3.31586 10.8431C3.27179 10.7107 3.23323 10.5413 3.30484 10.4301C3.3434 10.3719 3.404 10.3401 3.48663 10.3295C3.55273 10.3189 3.61883 10.3295 3.67392 10.3666C3.7235 10.409 3.75104 10.4672 3.76757 10.5254C3.77308 10.536 3.77858 10.5466 3.77858 10.5572C3.80062 10.6154 3.82265 10.6631 3.84469 10.716C3.88325 10.716 3.92732 10.7107 3.96588 10.7054C4.02647 10.6949 4.09258 10.6843 4.15868 10.6684C4.24131 10.6525 4.31843 10.626 4.39555 10.589C4.2358 10.5201 4.09808 10.3878 3.96588 10.1866C3.92181 10.1178 3.88325 10.0489 3.84469 9.9801C3.65739 10.0013 3.44807 9.94304 3.22221 9.80538C2.97983 9.66243 2.83661 9.493 2.7705 9.28652C2.73194 9.18063 2.72644 9.06415 2.75949 8.95296C2.79254 8.85237 2.88068 8.77825 2.99085 8.76766C3.09551 8.76236 3.18365 8.83648 3.23323 8.95826C3.24976 8.99532 3.26077 9.03238 3.27179 9.06944C3.2773 9.09062 3.28832 9.11709 3.29382 9.13827C3.31586 9.2071 3.33789 9.26534 3.35993 9.31828C3.39849 9.44006 3.46459 9.54595 3.55824 9.63595C3.61332 9.6889 3.69045 9.72067 3.76757 9.72596C3.75655 9.66772 3.75655 9.60419 3.76757 9.54595C3.78409 9.44006 3.81164 9.33417 3.88876 9.27593C3.97689 9.21239 4.10359 9.24946 4.1697 9.32358C4.2358 9.403 4.28538 9.4983 4.31292 9.59889C4.34046 9.69949 4.35699 9.80538 4.36801 9.90598C4.37902 10.0225 4.40106 10.1389 4.4286 10.2554C4.45064 10.3295 4.4892 10.4301 4.56632 10.4725C4.6214 10.4195 4.67649 10.356 4.71505 10.2872L4.72056 10.2819C4.77565 10.1972 4.84726 10.0913 4.96845 10.0807C5.08964 10.0701 5.16676 10.176 5.18879 10.2819C5.19981 10.3931 5.17778 10.5095 5.11718 10.6048C5.0676 10.7054 4.99048 10.7849 4.89684 10.8484C4.79768 10.9013 4.69853 10.9331 4.58835 10.949C4.38453 10.9808 4.17521 10.9808 3.96588 10.9543C4.04851 11.0866 4.16419 11.1978 4.2964 11.2773C4.40106 11.3408 4.54979 11.4043 4.69853 11.3778C4.69853 11.2984 4.73158 11.2243 4.78666 11.1714C4.88582 11.1025 5.01252 11.0972 5.11167 11.1608C5.21634 11.2296 5.29346 11.3249 5.33753 11.4361C5.43668 11.6638 5.45321 11.9232 5.3871 12.1614C5.35405 12.2991 5.29897 12.4262 5.22735 12.5532C5.17227 12.6485 5.09515 12.7332 5.0015 12.7968C5.02353 12.8127 5.04557 12.8285 5.0676 12.8444C5.22185 12.945 5.39812 13.0086 5.57991 13.035C5.78923 13.0668 5.97102 13.0562 6.11424 13.0033C6.0867 12.9609 6.05916 12.9185 6.03712 12.8709C6.00407 12.8021 5.93246 12.6274 6.07568 12.5426C6.18035 12.4791 6.31806 12.5162 6.41171 12.5744C6.48883 12.6221 6.55493 12.6856 6.61553 12.7491C6.64307 12.7756 6.66511 12.8021 6.69265 12.8232C6.80282 12.9291 6.94605 13.0033 7.10029 13.0297C7.14436 13.035 7.18292 13.0403 7.22699 13.0403L7.24351 11.7485C6.90198 11.5579 6.67062 11.2296 6.61002 10.8537C6.61002 10.8325 6.60451 10.8166 6.60451 10.7955L6.59349 10.7902C6.4062 10.7637 6.22442 10.7002 6.05916 10.6101C5.96 10.5625 5.87186 10.4937 5.80025 10.4037C5.73966 10.3189 5.69559 10.2236 5.67906 10.1178C5.65703 10.0277 5.65152 9.93245 5.66254 9.83715C5.66254 9.75773 5.71762 9.67831 5.79474 9.64654C5.91042 9.60948 6.00958 9.69419 6.05916 9.77891C6.10323 9.85303 6.14179 9.93245 6.18035 10.0066C6.19687 10.0383 6.2134 10.0701 6.22442 10.1019C6.23543 10.123 6.24645 10.1442 6.25747 10.1707C6.33459 10.3242 6.42824 10.5201 6.59349 10.589C6.59349 10.5413 6.599 10.4937 6.60451 10.446C6.61002 10.3984 6.62104 10.356 6.62655 10.3137C6.62655 10.2872 6.63205 10.2554 6.64307 10.2236C6.65409 10.1707 6.67062 10.1125 6.68714 10.0595C6.70367 10.0119 6.73672 9.9748 6.78079 9.94833C6.84138 9.92715 6.90749 9.93774 6.94605 9.98539C6.98461 10.033 7.00664 10.086 7.01215 10.1442C7.01766 10.1813 7.02317 10.2184 7.02868 10.2607L7.07825 10.5943C7.08376 10.6578 7.10029 10.7213 7.11681 10.7849C7.13334 10.8378 7.1719 10.8802 7.22699 10.9066C7.238 10.9119 7.24351 10.9119 7.25453 10.9119L7.28758 8.30703C7.28758 8.18526 7.21597 8.07408 7.1058 8.02113L6.36213 7.6664C6.36213 7.67169 6.35662 7.67169 6.35662 7.67699C6.22442 7.84641 6.07017 7.99466 5.8939 8.12173C5.7066 8.25938 5.50829 8.27527 5.33202 8.16408C5.15574 8.04231 5.01803 7.87818 4.94091 7.68228C4.89684 7.58169 4.89133 7.50227 4.91887 7.43873C4.95743 7.35932 5.03455 7.33284 5.15023 7.34873L5.21634 7.35932C5.40363 7.39108 5.59643 7.42285 5.77271 7.38049L3.42052 6.24747L3.39298 6.27394C3.31586 6.33218 3.22772 6.36924 3.13958 6.39042C2.94678 6.43807 2.74296 6.43807 2.55016 6.40631C2.35736 6.36924 2.17557 6.28983 2.02684 6.16276C1.95523 6.09922 1.87811 6.01981 1.8726 5.93509C1.8726 5.86097 1.92218 5.81332 2.03235 5.79744C2.16456 5.78685 2.30227 5.77626 2.43999 5.78155H2.4455L0.57807 4.89208C0.506458 4.86031 0.451371 4.80207 0.423828 4.72795V4.72265V4.71206C0.434845 4.66441 0.451371 4.61676 0.473406 4.56911C0.489932 4.52146 0.511966 4.46852 0.534001 4.42087C0.545018 4.39969 0.556035 4.37851 0.567053 4.35733L0.572561 4.35204L0.57807 4.34674C0.671717 4.29909 0.781889 4.29909 0.870027 4.34674L2.39592 5.07738C2.35736 5.02973 2.31329 4.98208 2.26922 4.93443C2.19761 4.86031 2.1315 4.78089 2.07091 4.69618C2.01031 4.61676 1.97175 4.52146 1.96074 4.42087C1.96074 4.32027 2.04337 4.23556 2.14803 4.23556C2.25269 4.22497 2.33532 4.2885 2.40143 4.34674C2.55567 4.47381 2.68237 4.63265 2.77601 4.80207C2.86966 4.97149 2.93025 5.15151 2.9578 5.34211L4.58284 6.11511C4.56632 6.06216 4.54979 6.01451 4.52776 5.96686C4.49471 5.90333 4.46165 5.8345 4.4286 5.77097C4.40106 5.71802 4.37352 5.66507 4.35148 5.61213C4.29089 5.50095 4.24131 5.38447 4.20275 5.26269C4.17521 5.1568 4.14766 5.02444 4.22478 4.95032C4.25783 4.91855 4.3019 4.90267 4.34597 4.90267C4.51123 4.90796 4.70403 5.11445 4.74259 5.1568C4.89133 5.32623 4.99048 5.53271 5.03455 5.74979C5.03455 5.75508 5.11167 6.15746 5.04557 6.33218L6.3401 6.95164C6.3401 6.94105 6.3401 6.93046 6.33459 6.91987C6.32357 6.88281 6.30705 6.84575 6.29603 6.80869C6.29052 6.78751 6.27399 6.76104 6.26298 6.73457C6.25747 6.71868 6.24645 6.70809 6.24094 6.69221C6.16382 6.52279 6.16933 6.38513 6.26298 6.29512C6.30705 6.25277 6.37315 6.22629 6.43374 6.23159C6.49985 6.24218 6.56044 6.27924 6.599 6.33218C6.68163 6.44866 6.71468 6.59161 6.69816 6.72927C6.69265 6.85104 6.6596 6.96752 6.59349 7.06812L7.43631 7.4705C7.56301 7.53404 7.71725 7.52874 7.84395 7.46521L8.6427 7.05224C8.6372 7.04694 8.6372 7.04694 8.63169 7.04165C8.55457 6.95164 8.50499 6.82457 8.49397 6.65515C8.47745 6.51749 8.5105 6.37454 8.59313 6.25806C8.63169 6.20511 8.68677 6.16805 8.75288 6.15746C8.81898 6.15217 8.88509 6.17335 8.92915 6.221C9.0228 6.311 9.02831 6.44337 8.95119 6.61809C8.94568 6.63397 8.94017 6.64985 8.92915 6.66044C8.91814 6.68691 8.90712 6.70809 8.8961 6.73457C8.88508 6.75574 8.87958 6.77692 8.87407 6.7981C8.86856 6.81398 8.86305 6.82987 8.85754 6.84575C8.85203 6.87752 8.85203 6.90928 8.85203 6.94635L10.1521 6.27394C10.0749 6.10981 10.1521 5.67566 10.1576 5.67037C10.1961 5.45329 10.2953 5.24681 10.4495 5.07738C10.4881 5.03503 10.6809 4.82854 10.8462 4.82325C10.8957 4.82325 10.9343 4.83913 10.9673 4.8709C11.0555 4.95561 11.0114 5.10915 10.9894 5.18327C10.9508 5.30505 10.9012 5.42153 10.8406 5.53801C10.8131 5.59625 10.7801 5.65978 10.7525 5.71802C10.725 5.77626 10.6919 5.8345 10.6644 5.89274C10.6423 5.94039 10.6203 5.99333 10.6038 6.04628L12.0525 5.29975C12.0746 5.08268 12.1407 4.8709 12.2453 4.675C12.339 4.50028 12.4657 4.34674 12.6199 4.21967C12.6915 4.16143 12.7742 4.1032 12.8733 4.10849C12.978 4.11378 13.0551 4.1932 13.0551 4.2938C13.0441 4.39439 13.0055 4.48969 12.9449 4.56911C12.8843 4.65382 12.8182 4.73324 12.7466 4.80737C12.6695 4.88149 12.6034 4.96091 12.5428 5.04562L14.278 4.15085C14.3221 4.12967 14.3717 4.11378 14.4268 4.11378H14.4378L14.4433 4.12437C14.4598 4.14555 14.4708 4.16673 14.4874 4.18791C14.5149 4.22497 14.5314 4.25674 14.5535 4.2938C14.57 4.30968 14.5865 4.32556 14.5975 4.34145C14.6086 4.36263 14.6196 4.3891 14.6196 4.41028C14.6306 4.43146 14.6416 4.45793 14.6526 4.47911C14.6691 4.51087 14.6857 4.54793 14.6967 4.585L14.7022 4.59558L14.6967 4.60617C14.6691 4.64324 14.6361 4.66971 14.592 4.69089L12.6089 5.71273C12.653 5.71802 12.6971 5.71802 12.7466 5.71273C12.8843 5.71273 13.0166 5.71802 13.1543 5.72861C13.2589 5.7392 13.3195 5.78685 13.3195 5.86627C13.3195 5.95098 13.2369 6.03569 13.1653 6.09393C13.0166 6.2157 12.8348 6.30042 12.6365 6.33218C12.4437 6.36924 12.2398 6.36395 12.047 6.32159C11.9534 6.30042 11.8653 6.25806 11.7936 6.20511C11.7771 6.19453 11.7606 6.17864 11.7386 6.16276L9.4084 7.35932C9.5957 7.41226 9.79401 7.3752 9.99232 7.34343L10.0639 7.33284C10.1796 7.31167 10.2567 7.34343 10.2953 7.42285C10.3339 7.50756 10.3008 7.60286 10.2733 7.6664C10.1961 7.8623 10.0584 8.02642 9.88215 8.1482C9.70587 8.25938 9.50756 8.2435 9.32027 8.10584C9.14399 7.97877 8.98975 7.82523 8.85754 7.65581L8.85203 7.65052L8.16345 8.00525C8.04226 8.06878 7.96514 8.18526 7.96514 8.31762L7.93209 10.8325C7.98167 10.8113 8.02023 10.769 8.03676 10.716C8.05879 10.6525 8.06981 10.589 8.07532 10.5254L8.14142 10.0754C8.14693 10.0172 8.16896 9.96421 8.20752 9.91656C8.25159 9.87421 8.3177 9.85832 8.37278 9.8795C8.42236 9.90598 8.4499 9.94304 8.46643 9.99069C8.48846 10.0436 8.49948 10.1019 8.5105 10.1601C8.52151 10.1866 8.52702 10.2184 8.52702 10.2448C8.53804 10.2925 8.54355 10.3348 8.54906 10.3719C8.55457 10.4195 8.56007 10.4672 8.56007 10.5148C8.71983 10.446 8.81898 10.2554 8.8961 10.1019C8.90712 10.0807 8.91814 10.0542 8.92915 10.033C8.95119 9.99598 8.96771 9.95892 8.98424 9.92186C9.01729 9.85303 9.05585 9.77891 9.09441 9.71537C9.14399 9.63066 9.24314 9.54595 9.35883 9.58301C9.44146 9.62007 9.49103 9.69419 9.49654 9.77891C9.50756 9.87421 9.50205 9.96951 9.48002 10.0595C9.46349 10.1601 9.41942 10.2554 9.35883 10.3401C9.28721 10.4248 9.19908 10.4937 9.09441 10.5466C8.92915 10.6366 8.75288 10.6949 8.56558 10.7213L8.56007 10.7266C8.56007 10.7425 8.55457 10.7584 8.55457 10.7743V10.7902C8.49397 11.1661 8.26812 11.489 7.92658 11.6849L7.91006 12.9821C7.95963 12.9874 8.00921 12.9874 8.0643 12.9768C8.21854 12.9503 8.35626 12.8762 8.47194 12.7703C8.49948 12.7438 8.52151 12.7227 8.54906 12.6962C8.60965 12.6326 8.67576 12.5691 8.75288 12.5215C8.80245 12.495 8.9622 12.4103 9.0889 12.4897C9.18806 12.5532 9.20459 12.6697 9.12746 12.818C9.10543 12.8656 9.07789 12.908 9.05034 12.9503C9.23213 13.0139 9.43595 13.0033 9.58468 12.9821C9.76647 12.9556 9.94274 12.8921 10.097 12.7915C10.119 12.7756 10.1411 12.7597 10.1631 12.7438C10.0694 12.6803 9.99232 12.6009 9.93723 12.5003C9.86562 12.3785 9.81053 12.2461 9.77748 12.1085C9.71138 11.8702 9.7279 11.6108 9.82706 11.3831C9.87113 11.272 9.95376 11.1767 10.0529 11.1078C10.1521 11.0443 10.2843 11.0496 10.3779 11.1184C10.4385 11.1714 10.4716 11.2508 10.4716 11.3249C10.5928 11.3461 10.725 11.3143 10.8737 11.2243C11.0114 11.1449 11.1216 11.0337 11.2042 10.9013C11.0004 10.9278 10.7911 10.9278 10.5817 10.896C10.4716 10.8802 10.3724 10.8484 10.2733 10.7955C10.1741 10.7372 10.097 10.6525 10.0474 10.5519C9.98681 10.4566 9.96478 10.3401 9.97579 10.2289C9.99783 10.123 10.0805 10.0172 10.1961 10.0225C10.3173 10.0277 10.3834 10.1336 10.4385 10.2131L10.4495 10.2289C10.4936 10.2978 10.5432 10.356 10.5983 10.4142C10.6754 10.3666 10.7139 10.266 10.736 10.1972C10.769 10.086 10.7856 9.96421 10.7966 9.84774C10.8076 9.74185 10.8241 9.64125 10.8517 9.54065C10.8737 9.44006 10.9233 9.34476 10.9894 9.27063C11.061 9.19651 11.1767 9.15945 11.2703 9.22298C11.364 9.28652 11.3805 9.40829 11.3915 9.493C11.4025 9.55124 11.4025 9.61478 11.3915 9.67302C11.4686 9.66772 11.5458 9.63595 11.6008 9.58301C11.689 9.493 11.7551 9.38182 11.7936 9.26534C11.8212 9.19651 11.8432 9.13827 11.8597 9.08003C11.8653 9.05885 11.8763 9.03768 11.8818 9.0112C11.8928 8.97414 11.9038 8.93179 11.9203 8.89472C11.9369 8.84707 12.0085 8.69883 12.1627 8.70412C12.2729 8.71471 12.3665 8.78883 12.3941 8.88943C12.4271 9.00061 12.4216 9.11709 12.3831 9.22298C12.3225 9.42417 12.1737 9.5936 11.9314 9.74185C11.7 9.8795 11.4962 9.93774 11.3089 9.91656C11.2758 9.99069 11.2318 10.0595 11.1877 10.1283C11.061 10.3295 10.9233 10.4619 10.758 10.5307C10.8351 10.5678 10.9123 10.589 10.9949 10.6101C11.061 10.626 11.1271 10.6366 11.1877 10.6472C11.2263 10.6578 11.2703 10.6631 11.3089 10.6578C11.3254 10.6207 11.3419 10.5837 11.3585 10.5466L11.3805 10.499C11.386 10.4884 11.3915 10.4778 11.397 10.4619C11.4191 10.409 11.4411 10.3454 11.4907 10.3084C11.5458 10.2713 11.6119 10.2554 11.678 10.266C11.7606 10.2766 11.8212 10.3137 11.8597 10.3719C11.9314 10.4831 11.8928 10.6525 11.8487 10.7849C12.1187 10.8537 12.4051 10.7743 12.5924 10.5731C12.6365 10.5307 12.6695 10.4831 12.6971 10.4301C12.7081 10.409 12.7191 10.3878 12.7301 10.3666C12.7466 10.3348 12.7632 10.2978 12.7852 10.266C12.8238 10.2131 12.8733 10.176 12.9339 10.1548C12.9945 10.123 13.0661 10.1125 13.1322 10.1283C13.1928 10.1548 13.2369 10.1972 13.27 10.2501C13.3085 10.3031 13.3416 10.3613 13.3636 10.4248C13.4022 10.5678 13.314 10.7002 13.2369 10.7796C13.0551 10.9543 12.8182 11.0655 12.5648 11.0919C12.2784 11.129 11.9809 11.0866 11.722 11.039C11.5678 11.2773 11.3034 11.4202 11.1106 11.4943C10.8847 11.5843 10.6423 11.6267 10.4 11.6161C10.3944 11.6373 10.3889 11.6638 10.3834 11.6849C10.3669 11.7432 10.3504 11.8067 10.3394 11.8649C10.3008 12.0344 10.2843 12.2726 10.411 12.4367L10.4275 12.4156C10.5211 12.2673 10.6478 12.1138 10.8296 12.0979C10.8902 12.0926 10.9453 12.1085 10.9894 12.1508C11.0665 12.225 11.0885 12.352 11.083 12.442C11.0665 12.6115 10.9839 12.7703 10.8572 12.8868C10.7195 13.0086 10.5542 13.1039 10.3779 13.1568C10.1851 13.2203 9.98681 13.2733 9.78299 13.305C9.44697 13.3527 9.10543 13.3474 8.7694 13.2839C8.62618 13.4215 8.46643 13.5433 8.28464 13.6333C8.26261 13.6439 8.24608 13.6545 8.22405 13.6651C8.11939 13.718 8.01472 13.771 7.93209 13.8504C7.91557 13.8663 7.89904 13.8874 7.88251 13.9086L7.86048 15.7723C7.86048 15.7988 7.85497 15.8199 7.84946 15.8464L7.84395 15.857H7.83294C7.79988 15.8623 7.76132 15.8623 7.72827 15.8676C7.71726 15.8676 7.71175 15.8676 7.70073 15.8676C7.69522 15.8676 7.6842 15.8676 7.67869 15.8676C7.65115 15.8623 7.62361 15.8623 7.59056 15.8623ZM7.41428 15.8199H7.4253C7.45284 15.8252 7.47487 15.8252 7.50242 15.8252C7.56301 15.8305 7.62361 15.8305 7.6842 15.8252C7.68971 15.8252 7.70073 15.8252 7.70624 15.8252C7.71725 15.8252 7.72276 15.8252 7.73378 15.8252C7.76132 15.8252 7.79438 15.8199 7.82192 15.8146C7.82743 15.7988 7.82743 15.7829 7.82743 15.767L7.84946 13.8927L7.85497 13.8874C7.8715 13.8663 7.89353 13.8398 7.91006 13.8186C7.9982 13.7339 8.10286 13.681 8.21303 13.6227C8.23507 13.6121 8.25159 13.6015 8.27363 13.591C8.4499 13.5009 8.61516 13.3792 8.75288 13.2415L8.75839 13.2362H8.7694C9.10543 13.2998 9.44146 13.305 9.77748 13.2574C9.97579 13.2256 10.1741 13.178 10.3669 13.1092C10.5377 13.0562 10.7029 12.9662 10.8351 12.8497C10.9563 12.7385 11.0335 12.5903 11.05 12.4315C11.0555 12.3467 11.0335 12.2303 10.9729 12.172C10.9398 12.1403 10.8957 12.1244 10.8462 12.1297C10.6809 12.1456 10.5707 12.2832 10.4771 12.4262L10.433 12.495L10.4165 12.4738C10.2622 12.2991 10.2788 12.0344 10.3173 11.8491C10.3283 11.7908 10.3504 11.7273 10.3669 11.669C10.3724 11.6426 10.3834 11.6108 10.3889 11.5843L10.3944 11.5684H10.411C10.6534 11.579 10.8957 11.542 11.1216 11.452C11.3144 11.3778 11.5733 11.2349 11.722 11.0019L11.7275 10.9913H11.7441C12.003 11.039 12.3004 11.0866 12.5869 11.0443C12.8348 11.0178 13.0606 10.9119 13.2369 10.7425C13.3085 10.6684 13.3911 10.5519 13.3526 10.4248C13.3305 10.3666 13.303 10.3084 13.2644 10.2607C13.2369 10.2131 13.1983 10.176 13.1488 10.1548C13.0937 10.1442 13.0331 10.1495 12.9835 10.176C12.9284 10.1972 12.8844 10.2289 12.8513 10.2766C12.8293 10.3031 12.8182 10.3348 12.8017 10.3719C12.7907 10.3931 12.7797 10.4142 12.7687 10.4407C12.7356 10.4937 12.6971 10.5466 12.653 10.589C12.4492 10.806 12.1352 10.8855 11.8432 10.806L11.8212 10.8007L11.8267 10.7796C11.8653 10.679 11.9148 10.4937 11.8487 10.3825C11.8212 10.3348 11.7661 10.3084 11.6945 10.2978C11.6394 10.2872 11.5843 10.2978 11.5347 10.3295C11.4962 10.3613 11.4741 10.4142 11.4576 10.4672C11.4521 10.4831 11.4466 10.4937 11.4411 10.5043L11.4191 10.5519C11.4025 10.5943 11.386 10.6366 11.364 10.679L11.3585 10.6896H11.3474C11.2979 10.6949 11.2483 10.6896 11.1987 10.679C11.1381 10.6684 11.072 10.6578 11.0059 10.6419C10.9068 10.6207 10.8076 10.589 10.7195 10.5413L10.6809 10.5201L10.725 10.5043C10.8957 10.4407 11.0445 10.3084 11.1767 10.1019C11.2207 10.033 11.2648 9.95892 11.2979 9.8848L11.3034 9.86891H11.3199C11.5017 9.89539 11.7055 9.83715 11.9314 9.69949C12.1627 9.56183 12.3059 9.3977 12.361 9.2071C12.3996 9.1065 12.3996 8.99532 12.372 8.89472C12.3445 8.81001 12.2674 8.74648 12.1737 8.74118C12.0525 8.73589 11.992 8.86825 11.9754 8.91061C11.9589 8.94767 11.9479 8.98473 11.9369 9.02709C11.9314 9.04826 11.9203 9.07474 11.9148 9.09592C11.8983 9.15416 11.8763 9.21239 11.8487 9.28122C11.8102 9.403 11.7386 9.51948 11.6449 9.61478C11.5733 9.67831 11.4796 9.71537 11.3805 9.71537H11.3585L11.364 9.69419C11.375 9.63066 11.375 9.56713 11.3695 9.50359C11.3585 9.42417 11.3419 9.31299 11.2648 9.26004C11.1932 9.2071 11.094 9.23887 11.039 9.3024C10.9784 9.37652 10.9288 9.46653 10.9068 9.55654C10.8792 9.65713 10.8627 9.75773 10.8517 9.85832C10.8406 9.9801 10.8186 10.0966 10.7856 10.2131C10.758 10.2978 10.7139 10.4142 10.6148 10.4619L10.6038 10.4672L10.5928 10.4566C10.5267 10.3984 10.4716 10.3295 10.422 10.2554L10.411 10.2395C10.3559 10.1601 10.3008 10.0701 10.2016 10.0648C10.108 10.0595 10.0419 10.1495 10.0254 10.2342C10.0144 10.3348 10.0364 10.4407 10.0915 10.5307C10.1355 10.626 10.2072 10.7054 10.3008 10.7584C10.3889 10.806 10.4881 10.8378 10.5928 10.8537C10.8076 10.8855 11.0279 10.8855 11.2428 10.8537L11.2868 10.8484L11.2593 10.896C11.2538 10.9013 11.2483 10.9119 11.2483 10.9172C11.1657 11.0549 11.0445 11.1714 10.9012 11.2561C10.736 11.3514 10.5817 11.3884 10.4495 11.3567L10.433 11.3514V11.3355C10.4385 11.2614 10.411 11.1925 10.3559 11.1449C10.2788 11.0866 10.1631 11.0814 10.0805 11.1396C9.98681 11.2031 9.90969 11.2931 9.86562 11.3937C9.76647 11.6161 9.74994 11.8596 9.81604 12.0926C9.84909 12.225 9.90418 12.352 9.97028 12.4738C10.0254 12.5744 10.108 12.6591 10.2072 12.7174L10.2292 12.7332L10.2072 12.7491C10.1796 12.7756 10.1466 12.7968 10.1135 12.818C9.95376 12.9185 9.77197 12.9874 9.58468 13.0139C9.42493 13.0403 9.19908 13.0509 9.00627 12.9715L8.98424 12.9609L8.99526 12.9397C9.02831 12.8921 9.05585 12.8444 9.0834 12.7915C9.11094 12.7332 9.17153 12.5797 9.06136 12.5109C8.9567 12.442 8.80796 12.5215 8.7694 12.5426C8.69779 12.5903 8.63169 12.6485 8.57109 12.7121C8.54355 12.7385 8.52151 12.765 8.49397 12.7862C8.37829 12.8974 8.22956 12.9715 8.06981 13.0033C8.00921 13.0139 7.94862 13.0139 7.88802 13.0086H7.8715L7.88802 11.6585L7.89904 11.6532C8.23507 11.4679 8.46092 11.1502 8.51601 10.7849V10.769C8.52151 10.7478 8.52151 10.7319 8.52151 10.716V10.7002L8.53804 10.6949L8.56007 10.6843C8.74186 10.6578 8.91814 10.5996 9.0834 10.5148C9.18255 10.4672 9.26518 10.4037 9.33128 10.3189C9.38637 10.2395 9.42493 10.1495 9.44146 10.0542C9.46349 9.96421 9.469 9.87421 9.45798 9.7842C9.45798 9.71537 9.41391 9.65184 9.34781 9.62537C9.25967 9.59889 9.18255 9.66772 9.13297 9.74185C9.09441 9.80538 9.06136 9.8795 9.0228 9.94833C9.00627 9.98539 8.98424 10.0277 8.96771 10.0648C8.9567 10.086 8.94568 10.1072 8.93466 10.1283C8.85203 10.2978 8.74737 10.5095 8.54906 10.5731L8.52151 10.5837V10.5572C8.52151 10.499 8.51601 10.446 8.5105 10.3878C8.50499 10.3507 8.49948 10.3137 8.48846 10.2607C8.48846 10.2289 8.48295 10.2025 8.47194 10.1813C8.46092 10.123 8.44439 10.0701 8.42787 10.0172C8.41685 9.9801 8.38931 9.94833 8.35626 9.92715C8.3177 9.91127 8.26812 9.92186 8.24058 9.95363C8.20752 9.99069 8.191 10.0383 8.18549 10.0913L8.11938 10.5413C8.11388 10.6048 8.09735 10.6737 8.07532 10.7372C8.05328 10.8007 8.00921 10.8537 7.94311 10.8802C7.93209 10.8855 7.92107 10.8855 7.91557 10.8908L7.88802 10.896L7.92107 8.32821C7.92658 8.17997 8.00921 8.0476 8.14142 7.97877L8.87407 7.59757L8.87958 7.62934C8.87958 7.63463 8.87958 7.63993 8.88509 7.63993C9.01729 7.80406 9.16602 7.9523 9.33679 8.07937C9.45798 8.16938 9.64528 8.24879 9.8546 8.12173C10.0254 8.00525 10.1521 7.84641 10.2292 7.6611C10.2567 7.60286 10.2843 7.51815 10.2512 7.44932C10.2237 7.39108 10.1576 7.36461 10.0639 7.38049L9.99232 7.39108C9.77748 7.42815 9.55163 7.46521 9.3423 7.39108L9.29823 7.3752L11.733 6.1204L11.7441 6.13099C11.7661 6.15217 11.7881 6.16805 11.8047 6.18394C11.8763 6.23688 11.9589 6.27394 12.0415 6.29512C12.2288 6.33748 12.4271 6.34277 12.6144 6.30571C12.8017 6.27394 12.978 6.18923 13.1212 6.07275C13.1708 6.0304 13.2589 5.94568 13.2589 5.87156C13.2589 5.80273 13.1928 5.78155 13.1322 5.77626C13 5.76567 12.8678 5.75508 12.7356 5.76038C12.6695 5.76567 12.5979 5.76567 12.5263 5.75508L12.4657 5.74449L14.5645 4.66441C14.5975 4.64853 14.6251 4.62735 14.6471 4.60088C14.6361 4.56911 14.6251 4.53734 14.6086 4.51087C14.5975 4.4844 14.5865 4.46322 14.5755 4.43675V4.43145C14.5755 4.41028 14.57 4.39439 14.559 4.37322C14.548 4.35733 14.5369 4.34674 14.5259 4.33086L14.5204 4.32556C14.4984 4.2938 14.4819 4.25674 14.4543 4.22497C14.4433 4.20379 14.4268 4.18791 14.4158 4.17202C14.3772 4.17202 14.3331 4.18791 14.3001 4.20379L12.4271 5.17269L12.4657 5.10915C12.5373 4.99797 12.6199 4.89737 12.7191 4.80207C12.7907 4.72795 12.8568 4.64853 12.9119 4.56911C12.9725 4.49499 13.0055 4.40498 13.011 4.31498C13.011 4.24085 12.9505 4.17202 12.8678 4.17202C12.7797 4.16673 12.7081 4.21967 12.642 4.27262C12.4932 4.39969 12.3665 4.54793 12.2729 4.71736C12.1682 4.90796 12.1021 5.11974 12.0856 5.33682V5.3474L10.5377 6.14687L10.5487 6.10452C10.5652 6.03569 10.5873 5.96686 10.6203 5.89803C10.6478 5.83979 10.6754 5.78155 10.7084 5.72331C10.736 5.66507 10.769 5.60684 10.7966 5.5433C10.8572 5.43212 10.9012 5.31564 10.9398 5.19916C10.9673 5.09856 10.9894 4.98208 10.9288 4.92384C10.9012 4.89737 10.8737 4.88678 10.8351 4.89208C10.7195 4.89737 10.5652 5.02444 10.4716 5.13033C10.3283 5.29446 10.2292 5.49036 10.1906 5.70214C10.1686 5.8292 10.119 6.17864 10.1906 6.29512L10.2016 6.311L8.81347 7.00988L8.80796 6.98341C8.79695 6.93576 8.79695 6.88811 8.80796 6.84046C8.81347 6.82457 8.81898 6.80869 8.82449 6.7928C8.83 6.77163 8.83551 6.74515 8.84652 6.72398C8.85754 6.6975 8.86856 6.67103 8.87958 6.64985C8.88508 6.63397 8.89059 6.62338 8.90161 6.6075C8.97322 6.44866 8.96771 6.33218 8.88509 6.25277C8.84652 6.2157 8.79695 6.19453 8.74737 6.19982C8.69228 6.21041 8.64821 6.24218 8.61516 6.28453C8.53804 6.39572 8.50499 6.52278 8.52151 6.65515C8.53253 6.81398 8.5766 6.93576 8.64821 7.01517C8.65372 7.02047 8.65923 7.02576 8.66474 7.03106C8.67025 7.03635 8.67576 7.04165 8.68127 7.04694L8.7033 7.06812L7.85497 7.50756C7.71726 7.57639 7.552 7.58169 7.40877 7.51286L6.52739 7.0893L6.53841 7.06812C6.61002 6.96752 6.64858 6.84575 6.64858 6.72927C6.66511 6.59691 6.63205 6.46455 6.55493 6.35336C6.52188 6.311 6.47781 6.27924 6.42273 6.26865C6.37315 6.26335 6.32357 6.28453 6.28501 6.3163C6.18586 6.4169 6.21891 6.56514 6.26849 6.67103C6.27399 6.68691 6.2795 6.6975 6.29052 6.71339C6.30705 6.73986 6.31806 6.76633 6.32908 6.7928C6.3401 6.82987 6.35111 6.86693 6.36764 6.90399C6.37315 6.93046 6.37315 6.95693 6.37315 6.97811V7.00988L4.98497 6.34807L4.99599 6.33218C5.05659 6.20511 5.01252 5.86097 4.99048 5.75508C4.95192 5.5433 4.85277 5.3474 4.70954 5.18327C4.61039 5.07738 4.45615 4.95032 4.34597 4.94502C4.30741 4.94502 4.27987 4.95561 4.25233 4.97679C4.19173 5.03503 4.21377 5.1621 4.24131 5.2521C4.27987 5.36858 4.32945 5.48506 4.38453 5.59625C4.41208 5.64919 4.43411 5.70214 4.46165 5.75508C4.49471 5.81862 4.52776 5.88744 4.56081 5.95098C4.59386 6.01451 4.6159 6.08334 4.63242 6.14687L4.64344 6.18923L2.91924 5.36858V5.35799C2.89169 5.16739 2.8311 4.98738 2.73745 4.82325C2.64381 4.65382 2.52262 4.50558 2.36837 4.37851C2.30778 4.32556 2.23066 4.26733 2.14252 4.27791C2.05989 4.28321 1.99379 4.34674 1.99379 4.42616C2.00481 4.51617 2.03786 4.60617 2.09294 4.6803C2.15354 4.76501 2.21964 4.83913 2.29125 4.91326C2.35736 4.98208 2.41795 5.05091 2.47855 5.12504L2.53363 5.19386L0.847993 4.37851C0.770872 4.34145 0.677225 4.34145 0.594596 4.37322C0.583578 4.39439 0.572561 4.41028 0.567053 4.43145C0.545018 4.47911 0.522983 4.52676 0.506458 4.57441C0.489932 4.62206 0.473406 4.66441 0.462389 4.71206C0.489932 4.7756 0.534001 4.82325 0.594596 4.84972L2.6383 5.82391H2.53363C2.48956 5.81862 2.451 5.81862 2.41795 5.82391C2.29125 5.82391 2.16456 5.8292 2.03786 5.83979C1.92218 5.85568 1.91116 5.90333 1.91116 5.93509C1.91116 6.00922 1.99379 6.08334 2.04887 6.13629C2.1921 6.25277 2.36837 6.33218 2.55567 6.36924C2.74296 6.40631 2.94127 6.40101 3.12857 6.35866C3.2167 6.33748 3.29933 6.30042 3.36544 6.24747L3.41501 6.20511L3.42603 6.21041L5.91042 7.39638L5.86085 7.41226C5.65703 7.4758 5.44219 7.43873 5.23286 7.40697L5.16676 7.39638C5.07311 7.3805 5.00701 7.40167 4.97947 7.46521C4.95743 7.51815 4.96294 7.58698 5.0015 7.67699C5.07862 7.8623 5.21083 8.02642 5.3816 8.13761C5.58541 8.26468 5.77271 8.18526 5.8939 8.09525C6.06467 7.96818 6.21891 7.81994 6.34561 7.65581C6.35111 7.65052 6.35111 7.64522 6.35111 7.64522V7.61345L7.13885 7.98936C7.26555 8.0476 7.34818 8.17467 7.34818 8.31233L7.31512 10.9596H7.29309C7.27106 10.9596 7.24902 10.9543 7.2325 10.949C7.16639 10.9225 7.11681 10.8696 7.10029 10.806C7.07825 10.7425 7.06724 10.6737 7.05622 10.6101L7.00664 10.2766C7.00113 10.2395 6.99562 10.1972 6.99012 10.1601C6.98461 10.1072 6.96808 10.0595 6.93503 10.0225C6.90749 9.99069 6.85791 9.9801 6.81935 9.99598C6.7863 10.0119 6.75875 10.0436 6.74774 10.0807C6.7257 10.1336 6.71468 10.1866 6.70367 10.2448C6.69265 10.2713 6.68714 10.2978 6.68714 10.3242C6.68163 10.3666 6.67062 10.409 6.66511 10.4566C6.6596 10.5148 6.65409 10.5678 6.65409 10.626V10.6525L6.62655 10.6419C6.42824 10.5784 6.32357 10.3666 6.24094 10.1972C6.22992 10.176 6.21891 10.1548 6.20789 10.1336C6.19136 10.1019 6.17484 10.0701 6.16382 10.0383C6.12526 9.95892 6.0867 9.8848 6.04814 9.81597C6.00407 9.74184 5.92144 9.67302 5.8333 9.69949C5.77271 9.72596 5.72864 9.7895 5.72864 9.85832C5.71762 9.94833 5.72313 10.0436 5.74517 10.1336C5.76169 10.2289 5.80025 10.3242 5.85534 10.3984C5.92144 10.4778 6.00407 10.5413 6.10323 10.5943C6.26849 10.6843 6.44476 10.7425 6.63205 10.769L6.63756 10.7743L6.64307 10.7796H6.6596L6.66511 10.8007C6.66511 10.8219 6.67062 10.8484 6.67062 10.8696C6.73121 11.2402 6.95706 11.5579 7.29309 11.7432L7.30411 11.7485L7.28758 13.1039H7.27106C7.22148 13.1092 7.16639 13.1039 7.11681 13.0986C6.95706 13.0668 6.80833 12.9927 6.68714 12.8815C6.6596 12.855 6.63205 12.8285 6.61002 12.8021C6.54943 12.7438 6.48883 12.6803 6.41171 12.6326C6.32908 12.5797 6.20789 12.5426 6.11975 12.6009C6.00407 12.6697 6.06467 12.818 6.09772 12.8815C6.12526 12.9344 6.1528 12.9821 6.18586 13.0297L6.19687 13.0509L6.17484 13.0615C6.0206 13.125 5.82779 13.1356 5.59643 13.1039C5.40914 13.0774 5.22735 13.0086 5.0676 12.908C5.03455 12.8868 5.0015 12.8656 4.97396 12.8391L4.95192 12.8232L4.97396 12.8074C5.07311 12.7491 5.15574 12.6644 5.21083 12.5638C5.28244 12.442 5.33202 12.315 5.36507 12.1826C5.43117 11.9497 5.41465 11.7061 5.31549 11.4837C5.27142 11.3778 5.19981 11.2931 5.10066 11.2296C5.01803 11.1767 4.90234 11.182 4.82522 11.2402C4.77565 11.2878 4.74259 11.3567 4.7481 11.4308V11.4467L4.73158 11.452C4.59937 11.4837 4.44513 11.4467 4.27987 11.3514C4.13665 11.2667 4.02096 11.1502 3.93283 11.0178C3.92732 11.0125 3.92181 11.0019 3.92181 10.9966L3.89426 10.9437L3.93833 10.949C4.15317 10.9808 4.37352 10.9808 4.58835 10.949C4.69302 10.9331 4.79217 10.9013 4.88031 10.8537C4.96845 10.8007 5.04006 10.7213 5.08413 10.626C5.13922 10.536 5.16676 10.4301 5.15023 10.3242C5.13371 10.2448 5.07862 10.1495 4.97396 10.1548C4.86929 10.1601 4.8087 10.2554 4.75912 10.3348L4.75361 10.3401C4.70403 10.4142 4.64895 10.4831 4.58284 10.5413L4.57183 10.5519L4.56081 10.5466C4.46165 10.499 4.41759 10.3825 4.39004 10.2978C4.35699 10.1813 4.33496 10.0595 4.32394 9.94304C4.31292 9.84244 4.2964 9.73655 4.26885 9.64125C4.24682 9.54595 4.20275 9.45594 4.13665 9.38182C4.08156 9.32358 3.9824 9.29181 3.91079 9.33946C3.84469 9.38711 3.81714 9.48771 3.80613 9.58301C3.79511 9.64654 3.80062 9.71008 3.81164 9.77361L3.81714 9.79479H3.79511C3.69595 9.79479 3.60231 9.75773 3.5307 9.69419C3.43705 9.59889 3.36544 9.48241 3.32688 9.36064C3.30484 9.3077 3.28281 9.24416 3.26077 9.18063C3.25526 9.15945 3.24425 9.13298 3.23874 9.1065C3.22772 9.06944 3.2167 9.03238 3.20018 8.99532C3.18365 8.95296 3.12306 8.8259 3.00187 8.8259C2.90822 8.83648 2.8311 8.89472 2.80907 8.98473C2.78152 9.08533 2.78703 9.19651 2.82008 9.29711C2.88068 9.493 3.01839 9.65184 3.24976 9.79479C3.47561 9.93245 3.67943 9.98539 3.86121 9.96421H3.87774L3.88325 9.9801C3.92181 10.0542 3.96037 10.1283 4.00444 10.1972C4.14215 10.409 4.28538 10.5413 4.45615 10.5996L4.50021 10.6154L4.46165 10.6366C4.37352 10.6843 4.27436 10.716 4.17521 10.7372C4.1091 10.7531 4.043 10.7637 3.9824 10.7743C3.93833 10.7849 3.88876 10.7902 3.83918 10.7849H3.82816L3.82265 10.7743C3.79511 10.716 3.77308 10.6631 3.75104 10.5996C3.74553 10.589 3.74002 10.5784 3.74002 10.5625C3.71799 10.5095 3.69595 10.4513 3.65739 10.4195C3.61333 10.3878 3.55824 10.3772 3.50315 10.3878C3.43154 10.3984 3.37645 10.4248 3.34891 10.4725C3.2773 10.5837 3.33239 10.769 3.37095 10.8696L3.37645 10.8908L3.35442 10.896C3.06246 10.9755 2.75398 10.896 2.54465 10.679C2.50058 10.6313 2.46202 10.5837 2.42897 10.5307C2.41795 10.5095 2.40693 10.4884 2.39592 10.4619C2.37939 10.4301 2.36287 10.3984 2.34634 10.3666C2.31329 10.3242 2.26922 10.2872 2.21964 10.2713C2.16456 10.2395 2.10396 10.2289 2.04337 10.2448C1.9993 10.266 1.95523 10.3031 1.92768 10.3507C1.88912 10.4037 1.85607 10.4566 1.83404 10.5201C1.80099 10.6419 1.87811 10.7637 1.94972 10.8378C2.12049 11.0072 2.35185 11.1131 2.59974 11.1396C2.88068 11.1767 3.17263 11.1343 3.44256 11.0814L3.45908 11.0761L3.46459 11.0866C3.61333 11.3196 3.87223 11.4626 4.06503 11.542C4.29089 11.632 4.53878 11.6743 4.78666 11.6638H4.80319L4.82522 11.7485C4.84175 11.812 4.86378 11.8808 4.8748 11.9497C4.91336 12.1403 4.92989 12.3997 4.77565 12.5744L4.75912 12.5956L4.71505 12.5268C4.6214 12.3838 4.51674 12.2461 4.34597 12.2303C4.2964 12.225 4.25233 12.2409 4.21927 12.2726C4.15317 12.3309 4.13665 12.4473 4.14215 12.5321C4.15868 12.6909 4.2358 12.8391 4.35699 12.9503C4.4892 13.0668 4.64895 13.1568 4.81972 13.2097C5.01252 13.2733 5.21083 13.3262 5.40914 13.358C5.74516 13.4056 6.0867 13.4003 6.41722 13.3368H6.42824L6.43374 13.3421C6.57146 13.4798 6.73672 13.6015 6.91299 13.6915C6.92952 13.7021 6.95156 13.7127 6.97359 13.7233C7.07825 13.7763 7.18843 13.8345 7.27656 13.9192C7.28207 13.9192 7.28207 13.9245 7.28758 13.9298C7.34818 13.9933 7.39775 14.0728 7.4253 14.1575V14.1628V14.1681L7.40326 15.7988C7.40326 15.7776 7.40326 15.7988 7.41428 15.8199Z" fill="#231F20"/>
</g>
<path d="M14.5982 4.45807C14.5707 4.48984 14.5376 4.51631 14.4991 4.53749L12.4554 5.5911C12.5215 5.60169 12.5931 5.60169 12.6647 5.59639C12.7969 5.59639 12.9346 5.60169 13.0668 5.61228C13.1384 5.61757 13.2155 5.64934 13.21 5.72875C13.2045 5.80817 13.1274 5.89288 13.0668 5.94583C12.9181 6.0676 12.7418 6.14702 12.549 6.18408C12.3562 6.22114 12.1579 6.21585 11.9706 6.17349C11.8825 6.15232 11.7943 6.11525 11.7227 6.05701C11.7007 6.04113 11.6786 6.02525 11.6621 6.00407L9.28238 7.2324C9.50823 7.31181 9.75612 7.25887 9.99299 7.22181C10.0756 7.21122 10.1638 7.21651 10.2023 7.30122C10.2354 7.37535 10.2078 7.46006 10.1803 7.52889C10.1032 7.71949 9.97096 7.88362 9.79468 8.0001C9.6129 8.11128 9.4201 8.07952 9.25484 7.95774C9.08407 7.83067 8.92983 7.68243 8.79762 7.513C8.79211 7.50771 8.7866 7.49712 8.7866 7.49183L8.07599 7.85715C7.94929 7.92068 7.86666 8.04775 7.86666 8.18541L7.83361 10.7268C7.84463 10.7268 7.85014 10.7215 7.86115 10.7215C7.92175 10.695 7.96582 10.6474 7.98234 10.5891C8.00438 10.5256 8.0154 10.462 8.0209 10.3985L8.05396 10.1656C8.06497 10.0914 8.07599 10.0226 8.08701 9.94848C8.09252 9.89553 8.10904 9.84259 8.1476 9.80023C8.18065 9.76317 8.24125 9.74729 8.29083 9.76846C8.32939 9.78964 8.36244 9.8267 8.37346 9.86906C8.39549 9.922 8.40651 9.98024 8.41752 10.0385C8.42854 10.065 8.43405 10.0914 8.43405 10.1232C8.43956 10.1656 8.45058 10.2079 8.45609 10.2503C8.46159 10.3085 8.4671 10.3614 8.4671 10.4197C8.68194 10.3509 8.78109 10.0967 8.87474 9.91671C8.92983 9.81082 8.97941 9.69963 9.04 9.59374C9.08958 9.51433 9.17772 9.43491 9.28238 9.46668C9.35399 9.49844 9.40357 9.56727 9.40357 9.6414C9.41459 9.7367 9.40908 9.8267 9.38704 9.91671C9.37052 10.0173 9.33196 10.1073 9.27136 10.192C9.19975 10.2767 9.11712 10.3456 9.01797 10.3932C8.85271 10.4779 8.67643 10.5415 8.48914 10.5679L8.47812 10.5732C8.47812 10.5732 8.47261 10.5732 8.47261 10.5785C8.47261 10.5997 8.4671 10.6262 8.4671 10.6474C8.40651 11.018 8.17515 11.3462 7.83912 11.5315L7.82259 12.8552C7.88319 12.8658 7.94378 12.8605 7.99887 12.8499C8.15862 12.8181 8.30184 12.744 8.41752 12.6381C8.50566 12.5534 8.58829 12.4581 8.69296 12.3892C8.78109 12.3363 8.9133 12.2939 9.00695 12.3575C9.11712 12.4263 9.08958 12.564 9.04 12.6646C9.01246 12.7175 8.98491 12.7652 8.95186 12.8128C9.12814 12.8816 9.33747 12.8816 9.51925 12.8552C9.70654 12.8287 9.88282 12.7652 10.0426 12.6646C10.0756 12.6434 10.1032 12.6222 10.1362 12.5957C10.0316 12.5375 9.94892 12.4475 9.89384 12.3469C9.82223 12.2251 9.76714 12.098 9.73409 11.9604C9.66798 11.7274 9.68451 11.4733 9.78367 11.2509C9.82773 11.145 9.90485 11.0497 10.004 10.9862C10.0977 10.928 10.2188 10.9333 10.307 10.9968C10.3676 11.0497 10.3951 11.1292 10.3896 11.2033C10.5383 11.235 10.6981 11.1821 10.8248 11.1027C10.9625 11.018 11.0782 10.9068 11.1608 10.7744C11.1663 10.7638 11.1718 10.7479 11.1829 10.7374C10.968 10.7691 10.7422 10.7691 10.5273 10.7374C10.4227 10.7215 10.318 10.6897 10.2244 10.6421C10.1307 10.5838 10.0591 10.5044 10.0095 10.4091C9.94892 10.3138 9.92689 10.2079 9.93791 10.0967C9.95443 10.0067 10.026 9.90083 10.1362 9.91142C10.2464 9.922 10.318 10.0226 10.3731 10.1073C10.4172 10.1814 10.4722 10.245 10.5383 10.3085C10.6265 10.2661 10.6706 10.1603 10.6981 10.0703C10.7311 9.95377 10.7532 9.83729 10.7587 9.71552C10.7697 9.61492 10.7862 9.50903 10.8138 9.40844C10.8358 9.31314 10.8854 9.22313 10.9515 9.14371C11.0176 9.07488 11.1223 9.04312 11.2049 9.10136C11.2875 9.1596 11.304 9.27078 11.3206 9.36079C11.3316 9.42432 11.3316 9.49315 11.3151 9.55668C11.4087 9.55668 11.4968 9.52492 11.563 9.46138C11.6566 9.37138 11.7227 9.2549 11.7613 9.13312C11.7833 9.07488 11.8053 9.01135 11.8274 8.95311C11.8494 8.89487 11.8659 8.83134 11.888 8.7731C11.921 8.68309 11.9981 8.58779 12.1083 8.59308C12.2075 8.60367 12.2956 8.6725 12.3231 8.76251C12.3507 8.8684 12.3507 8.97958 12.3121 9.08547C12.246 9.30784 12.0753 9.47197 11.8714 9.59374C11.6841 9.70493 11.4693 9.79494 11.2435 9.76317C11.2049 9.83729 11.1663 9.91142 11.1168 9.98554C11.0066 10.1603 10.8578 10.3244 10.654 10.3985C10.7422 10.4409 10.8358 10.4779 10.935 10.4991C11.0011 10.515 11.0617 10.5256 11.1278 10.5362C11.1718 10.5468 11.2214 10.5521 11.271 10.5468C11.2985 10.4885 11.3206 10.4303 11.3426 10.3773C11.3646 10.3244 11.3867 10.2397 11.4473 10.192C11.4968 10.1603 11.5574 10.1444 11.618 10.155C11.8825 10.1867 11.8439 10.4567 11.7668 10.6632C12.0477 10.7427 12.3562 10.6579 12.5545 10.4515C12.5986 10.4091 12.6371 10.3562 12.6647 10.3032C12.6922 10.2503 12.7143 10.192 12.7473 10.1444C12.7804 10.0967 12.8299 10.0597 12.885 10.0332C12.9401 10.0014 13.0117 9.99083 13.0778 10.0067C13.1329 10.0332 13.177 10.0703 13.2045 10.1179C13.2431 10.1708 13.2761 10.2291 13.2982 10.2873C13.3312 10.4144 13.2651 10.5362 13.177 10.6262C13.0007 10.7956 12.7638 10.9068 12.5159 10.9333C12.235 10.9703 11.9486 10.928 11.6676 10.875C11.5299 11.0921 11.293 11.2403 11.0562 11.3356C10.8303 11.4256 10.5824 11.468 10.3345 11.4521C10.3125 11.5421 10.285 11.6268 10.2629 11.7168C10.2188 11.918 10.2133 12.1669 10.3566 12.3257L10.3841 12.2781C10.4722 12.1457 10.5879 11.9869 10.7697 11.971C10.9515 11.9551 11.0121 12.1563 11.0011 12.2939C10.9845 12.4581 10.9074 12.6116 10.7807 12.7228C10.643 12.8446 10.4833 12.9346 10.307 12.9875C10.1142 13.0511 9.91587 13.104 9.71756 13.1358C9.38153 13.1834 9.03449 13.1781 8.69846 13.1146C8.55524 13.2575 8.39549 13.374 8.21371 13.4693C8.09252 13.5329 7.96031 13.5911 7.85564 13.6917C7.83361 13.7129 7.81708 13.734 7.80056 13.7552L7.77852 15.6242C7.77852 15.6454 7.77302 15.6718 7.76751 15.693C7.73445 15.6983 7.69589 15.6983 7.66284 15.7036C7.64632 15.7036 7.62979 15.7036 7.61326 15.7089C7.55267 15.7142 7.49207 15.7142 7.43148 15.7089C7.40394 15.7089 7.3819 15.7089 7.35436 15.7036H7.32682C7.31029 15.6824 7.30478 15.6507 7.30478 15.6242L7.32682 13.9935C7.29927 13.9088 7.2552 13.8346 7.1891 13.7711L7.18359 13.7658C7.08444 13.6652 6.95223 13.607 6.82553 13.5434C6.64375 13.4481 6.484 13.3317 6.34077 13.1887C6.00474 13.2522 5.66321 13.2628 5.32167 13.2099C5.11786 13.1781 4.92505 13.1305 4.73225 13.0616C4.55597 13.0087 4.39622 12.9187 4.25851 12.7969C4.13181 12.6804 4.05469 12.5322 4.03816 12.3681C4.02715 12.2304 4.08223 12.0292 4.26953 12.0451C4.45682 12.061 4.56699 12.2198 4.65513 12.3522L4.68267 12.3998C4.8259 12.2357 4.82039 11.9922 4.77632 11.791C4.75429 11.701 4.73225 11.611 4.70471 11.5262C4.45682 11.5421 4.21444 11.4998 3.98308 11.4098C3.74621 11.3145 3.50934 11.1662 3.37162 10.9491C3.09068 11.0021 2.80423 11.0444 2.52329 11.0074C2.2754 10.9809 2.03853 10.875 1.86225 10.7003C1.77412 10.6103 1.7025 10.4885 1.74106 10.3614C1.7631 10.2979 1.79615 10.2397 1.83471 10.192C1.86225 10.1444 1.90632 10.102 1.96141 10.0808C2.02751 10.065 2.09362 10.0755 2.1487 10.1073C2.20379 10.1285 2.25337 10.1656 2.28642 10.2185C2.31947 10.2714 2.34151 10.3244 2.36905 10.3773C2.39659 10.4303 2.43515 10.4779 2.47922 10.5256C2.67753 10.7321 2.98602 10.8168 3.26696 10.7374C3.18983 10.5309 3.15678 10.2609 3.41569 10.2291C3.47628 10.2185 3.53688 10.2291 3.58646 10.2661C3.64154 10.3085 3.66358 10.3879 3.69112 10.4515C3.71866 10.515 3.7407 10.5679 3.76273 10.6209C3.81231 10.6209 3.85638 10.6209 3.90596 10.6103C3.97206 10.5997 4.03266 10.5891 4.09876 10.5732C4.19791 10.5521 4.29156 10.5203 4.3797 10.4726C4.17588 10.3985 4.03265 10.2344 3.91697 10.0597C3.8729 9.99083 3.82884 9.91671 3.79028 9.83729C3.56993 9.86906 3.34958 9.77905 3.16229 9.66787C2.95847 9.54609 2.7877 9.38726 2.7216 9.1596C2.68304 9.05371 2.67753 8.94252 2.71058 8.83663C2.73813 8.74133 2.82626 8.67779 2.92542 8.66721C3.03559 8.66191 3.11271 8.75721 3.14577 8.84722C3.1678 8.90546 3.18433 8.96899 3.20636 9.02723C3.22839 9.08547 3.25043 9.14901 3.27246 9.20725C3.31102 9.32902 3.38264 9.4402 3.47077 9.53551C3.53688 9.59904 3.62502 9.63081 3.71866 9.63081C3.70765 9.56727 3.70214 9.49844 3.71315 9.43491C3.72417 9.3449 3.75171 9.23372 3.82884 9.17548C3.90596 9.11724 4.02164 9.1543 4.08223 9.21783C4.14834 9.29725 4.1924 9.38726 4.21995 9.48256C4.24749 9.58316 4.26402 9.68375 4.27503 9.78964C4.28605 9.90612 4.30809 10.0279 4.33563 10.1444C4.36317 10.2344 4.40724 10.3403 4.49538 10.3826C4.55597 10.3244 4.61657 10.2556 4.66064 10.1814C4.71572 10.0967 4.78183 9.99083 4.89751 9.98554C5.00768 9.98024 5.07929 10.0808 5.09582 10.1708C5.10684 10.2767 5.0848 10.3879 5.02421 10.4832C4.97463 10.5785 4.90302 10.6632 4.80937 10.7162C4.71573 10.7691 4.61657 10.8009 4.51191 10.8115C4.29707 10.8432 4.07122 10.8432 3.85638 10.8115C3.86189 10.8221 3.8674 10.838 3.87841 10.8485C3.96104 10.9809 4.07672 11.0974 4.21444 11.1768C4.34114 11.2509 4.50089 11.3092 4.64962 11.2774C4.64411 11.198 4.67166 11.1239 4.73225 11.0709C4.82039 11.0074 4.94158 11.0021 5.03523 11.0603C5.13438 11.1239 5.2115 11.2192 5.25557 11.325C5.35473 11.5474 5.37125 11.8016 5.30515 12.0345C5.2721 12.1669 5.21701 12.2992 5.1454 12.421C5.09031 12.5216 5.00768 12.6116 4.90302 12.6699C4.93056 12.6963 4.96361 12.7175 4.99667 12.7387C5.15642 12.8393 5.33269 12.9028 5.51998 12.9293C5.70177 12.9558 5.9111 12.9611 6.08737 12.8869C6.05432 12.8393 6.02678 12.7863 5.99924 12.7387C5.94966 12.6434 5.91661 12.5057 6.03229 12.4316C6.13144 12.3734 6.25814 12.4104 6.34628 12.4634C6.45645 12.5269 6.53357 12.6275 6.62171 12.7122C6.73739 12.8234 6.88062 12.8922 7.04037 12.924C7.08994 12.9346 7.13952 12.9346 7.1891 12.9293L7.20563 11.6057C6.85858 11.4203 6.6162 11.0921 6.55561 10.7162C6.5501 10.695 6.5501 10.6685 6.5501 10.6474C6.54459 10.6474 6.54459 10.6474 6.54459 10.6421L6.53357 10.6368C6.34628 10.6103 6.17 10.5521 6.00474 10.462C5.90559 10.4144 5.81745 10.3456 5.75135 10.2609C5.69075 10.1814 5.65219 10.0861 5.63567 9.98554C5.61363 9.89553 5.60812 9.80023 5.61914 9.71022C5.61914 9.6361 5.66872 9.56727 5.74033 9.53551C5.84499 9.50374 5.93313 9.58316 5.9772 9.66257C6.0378 9.76317 6.08737 9.87435 6.14246 9.98554C6.2306 10.1656 6.33526 10.4197 6.5501 10.4885C6.5501 10.4303 6.55561 10.3773 6.56112 10.3191C6.56662 10.2767 6.57213 10.2344 6.58315 10.192C6.58315 10.1656 6.58866 10.1338 6.59968 10.1073C6.61069 10.0491 6.62722 9.99613 6.64375 9.94318C6.65476 9.90083 6.68781 9.86376 6.72638 9.84259C6.77595 9.82141 6.83104 9.83729 6.8696 9.87435C6.90816 9.91671 6.92469 9.96966 6.93019 10.0226C6.94121 10.0967 6.95223 10.1656 6.96325 10.2397L6.9963 10.4726C7.00181 10.5362 7.01833 10.605 7.03486 10.6632C7.05138 10.7215 7.09545 10.7691 7.15605 10.7956C7.17257 10.8009 7.1891 10.8062 7.21113 10.8062L7.24419 8.18011C7.24419 8.05304 7.16707 7.93127 7.05138 7.87832L6.29119 7.513C6.29119 7.52359 6.28568 7.52889 6.28018 7.53418C6.14797 7.70361 5.99373 7.85185 5.82296 7.97892C5.6577 8.10069 5.4649 8.13246 5.28311 8.02128C5.10684 7.9048 4.97463 7.74067 4.89751 7.55007C4.86446 7.48124 4.84242 7.39652 4.87548 7.3224C4.91404 7.24298 5.00217 7.23239 5.0848 7.24298C5.31066 7.28005 5.54753 7.33299 5.77338 7.26416L3.33306 6.09937L3.2945 6.13114C3.22289 6.18408 3.13475 6.22644 3.04661 6.24762C2.85932 6.29527 2.66101 6.29527 2.4682 6.25821C2.2754 6.22114 2.09913 6.14173 1.95039 6.01995C1.8898 5.96701 1.80717 5.88759 1.80717 5.80288C1.80717 5.71817 1.88429 5.69699 1.95039 5.6864C2.0826 5.67581 2.22032 5.66522 2.35252 5.67052C2.38007 5.67052 2.41863 5.67052 2.45168 5.67052L0.507131 4.73868C0.441028 4.70691 0.385942 4.65397 0.358398 4.58514C0.358398 4.58514 0.358398 4.57985 0.358398 4.57455C0.369416 4.5269 0.385942 4.47925 0.402467 4.4316C0.418993 4.38395 0.441028 4.33101 0.463062 4.28335C0.47408 4.26218 0.485097 4.241 0.496114 4.21982C0.584252 4.17746 0.683408 4.17746 0.771546 4.21982L2.37456 4.98752C2.31396 4.9134 2.25337 4.84457 2.18726 4.77574C2.11565 4.70162 2.04955 4.6222 1.98895 4.54279C1.92836 4.46337 1.89531 4.37336 1.88429 4.27806C1.88429 4.18805 1.9559 4.11922 2.04404 4.11393C2.13769 4.10334 2.21481 4.16158 2.28642 4.21453C2.44066 4.34159 2.56185 4.49513 2.66101 4.66456C2.75465 4.83398 2.81525 5.01929 2.84279 5.20989L4.51741 6.00936C4.50089 5.94054 4.47885 5.877 4.4458 5.81347C4.39072 5.69699 4.33012 5.58051 4.26953 5.46403C4.20893 5.35284 4.15935 5.23637 4.12079 5.11459C4.09876 5.02988 4.06571 4.89222 4.13732 4.8181C4.28054 4.68044 4.53945 4.92928 4.62759 5.02459C4.77632 5.19401 4.87547 5.3952 4.91404 5.61228C4.92505 5.6864 4.98565 6.05701 4.91954 6.19997L6.26916 6.8459C6.26916 6.82472 6.26916 6.79825 6.26365 6.77707C6.25263 6.74001 6.23611 6.70294 6.22509 6.66588C6.21407 6.62882 6.18653 6.58646 6.17 6.5494C6.11492 6.42763 6.08187 6.27938 6.18653 6.17349C6.22509 6.13114 6.28568 6.10996 6.34077 6.11525C6.40137 6.12584 6.45645 6.1629 6.4895 6.21056C6.56663 6.32174 6.60519 6.4594 6.58866 6.59705C6.58315 6.72412 6.54459 6.8459 6.47298 6.94649L7.33232 7.35946C7.47004 7.423 7.62428 7.423 7.762 7.35417L8.58278 6.93061C8.57728 6.92531 8.57177 6.92002 8.56626 6.91472C8.56075 6.90943 8.55524 6.90414 8.54973 6.89884V6.89355C8.46159 6.79295 8.42854 6.65 8.41752 6.52293C8.401 6.38527 8.43405 6.25291 8.51668 6.13643C8.54973 6.08878 8.60482 6.05172 8.66541 6.04113C8.7205 6.03584 8.78109 6.05172 8.81966 6.09408C8.92432 6.19997 8.89127 6.34821 8.83618 6.46999C8.81965 6.51234 8.79762 6.5494 8.78109 6.58647C8.76457 6.62353 8.75906 6.66059 8.74253 6.69765C8.73152 6.7453 8.73152 6.78766 8.74253 6.83531L10.0866 6.14173C10.004 6.00936 10.0701 5.61228 10.0811 5.53815C10.1197 5.32108 10.2188 5.11989 10.3676 4.95046C10.4557 4.85516 10.7146 4.61161 10.8523 4.74398C10.9295 4.8128 10.8964 4.95046 10.8689 5.04047C10.8303 5.16224 10.7807 5.27872 10.7201 5.38991C10.665 5.50639 10.5989 5.62286 10.5439 5.73934C10.5108 5.80288 10.4888 5.87171 10.4722 5.94053L11.9706 5.16754C11.9926 4.95046 12.0532 4.73868 12.1634 4.54279C12.257 4.36807 12.3837 4.21453 12.5325 4.08746C12.5986 4.02922 12.6757 3.97627 12.7749 3.98157C12.8685 3.98686 12.9401 4.06099 12.9401 4.1457C12.9291 4.241 12.896 4.33101 12.8354 4.41042C12.7749 4.49513 12.7087 4.57455 12.6371 4.64868C12.5435 4.73868 12.4609 4.84457 12.3892 4.95046L14.1961 4.01863C14.2401 3.99745 14.2842 3.98686 14.3338 3.98157C14.3503 4.00275 14.3668 4.02392 14.3779 4.0451C14.3999 4.07687 14.4219 4.11393 14.444 4.15099C14.4605 4.16158 14.4715 4.17746 14.4825 4.19864C14.4935 4.21982 14.4991 4.241 14.5046 4.26218C14.5156 4.28865 14.5266 4.30983 14.5376 4.3363C14.5707 4.38395 14.5817 4.42101 14.5982 4.45807Z" fill="white"/>
<path d="M7.51403 15.73C7.48098 15.73 7.45344 15.73 7.42039 15.73C7.39835 15.73 7.37081 15.73 7.34327 15.7247H7.31572L7.31021 15.7141C7.29369 15.6876 7.28267 15.6559 7.28267 15.6241L7.30471 13.9987C7.27716 13.9193 7.23309 13.8451 7.17801 13.7869L7.1725 13.7816C7.08436 13.6916 6.96868 13.6387 6.853 13.5804L6.81995 13.5645C6.64367 13.4692 6.47841 13.3528 6.33519 13.2151C5.99916 13.2786 5.65763 13.2839 5.3216 13.2363C5.11778 13.2045 4.91947 13.1516 4.72667 13.088C4.55039 13.0351 4.38513 12.9398 4.24742 12.818C4.12072 12.7015 4.03809 12.5427 4.02156 12.3733C4.01605 12.2833 4.03258 12.1562 4.1097 12.0821C4.15377 12.0397 4.20886 12.0238 4.26945 12.0291C4.45674 12.045 4.57793 12.1985 4.67158 12.3468L4.68811 12.368C4.82031 12.1933 4.79277 11.9391 4.75972 11.7962C4.74319 11.7326 4.72667 11.6638 4.71014 11.6003L4.69361 11.5473C4.45124 11.5579 4.20335 11.5156 3.983 11.4256C3.7902 11.3461 3.52579 11.2032 3.37154 10.9702C3.10162 11.0232 2.81517 11.0602 2.52872 11.0232C2.27533 10.9967 2.03846 10.8855 1.85667 10.7108C1.77404 10.6261 1.6859 10.499 1.72997 10.3561C1.75201 10.2925 1.78506 10.2343 1.82913 10.176C1.85667 10.1231 1.90625 10.086 1.96133 10.0596C2.03295 10.0437 2.11007 10.0543 2.17066 10.086C2.23126 10.1072 2.28083 10.1496 2.31389 10.2025C2.33592 10.2343 2.35245 10.2661 2.36897 10.2978C2.37999 10.319 2.39101 10.3402 2.40202 10.3614C2.42957 10.4143 2.46813 10.462 2.50669 10.5043C2.69949 10.7055 2.98043 10.7849 3.25035 10.7161C3.20628 10.5837 3.16772 10.4143 3.23934 10.3031C3.2779 10.2449 3.33849 10.2131 3.42112 10.2025C3.48722 10.1919 3.55333 10.2025 3.60841 10.2396C3.65799 10.2819 3.68554 10.3402 3.70206 10.3984C3.70757 10.409 3.71308 10.4196 3.71308 10.4302C3.73511 10.4884 3.75715 10.5361 3.77918 10.589C3.81774 10.589 3.86181 10.5837 3.90037 10.5784C3.96097 10.5678 4.02707 10.5573 4.09317 10.5414C4.1758 10.5255 4.25292 10.499 4.33005 10.462C4.1703 10.3931 4.03258 10.2608 3.90037 10.0596C3.8563 9.99074 3.81774 9.92191 3.77918 9.85308C3.59189 9.87426 3.38256 9.81602 3.15671 9.67836C2.91433 9.53541 2.7711 9.36599 2.705 9.1595C2.66644 9.05361 2.66093 8.93713 2.69398 8.82595C2.72703 8.72535 2.81517 8.65123 2.92534 8.64064C3.03001 8.63535 3.11815 8.70947 3.16772 8.83124C3.18425 8.8683 3.19527 8.90537 3.20628 8.94243C3.21179 8.9636 3.22281 8.99008 3.22832 9.01126C3.25035 9.08008 3.27239 9.13832 3.29442 9.19127C3.33298 9.31304 3.39909 9.41893 3.49273 9.50894C3.54782 9.56188 3.62494 9.59365 3.70206 9.59895C3.69104 9.54071 3.69104 9.47717 3.70206 9.41893C3.71859 9.31304 3.74613 9.20715 3.82325 9.14891C3.91139 9.08538 4.03809 9.12244 4.10419 9.19656C4.1703 9.27598 4.21987 9.37128 4.24742 9.47188C4.27496 9.57247 4.29148 9.67836 4.3025 9.77896C4.31352 9.89544 4.33555 10.0119 4.3631 10.1284C4.38513 10.2025 4.42369 10.3031 4.50081 10.3455C4.5559 10.2925 4.61099 10.229 4.64955 10.1602L4.65505 10.1549C4.71014 10.0702 4.78175 9.96427 4.90294 9.95368C5.01862 9.94838 5.10125 10.049 5.12329 10.1549C5.13431 10.2661 5.11227 10.3825 5.05168 10.4778C5.0021 10.5784 4.92498 10.6578 4.83133 10.7214C4.73218 10.7743 4.63302 10.8061 4.52285 10.822C4.31903 10.8537 4.1097 10.8537 3.90037 10.8273C3.983 10.9596 4.09317 11.0708 4.23089 11.1502C4.33555 11.2138 4.48429 11.2773 4.63302 11.2508C4.63302 11.1714 4.66607 11.0973 4.72116 11.0443C4.82031 10.9755 4.94701 10.9702 5.04617 11.0338C5.15083 11.1026 5.22795 11.1979 5.27202 11.3091C5.37118 11.5367 5.3877 11.7962 5.3216 12.0344C5.28855 12.1721 5.23346 12.2991 5.16185 12.4262C5.10676 12.5215 5.02964 12.6062 4.93599 12.6698C4.95803 12.6856 4.98006 12.7015 5.0021 12.7174C5.15634 12.8127 5.33262 12.8815 5.5144 12.908C5.72373 12.9398 5.90551 12.9292 6.04874 12.8762C6.02119 12.8339 5.99365 12.7915 5.97162 12.7439C5.93857 12.6751 5.86695 12.5003 6.01018 12.4156C6.11484 12.3521 6.25256 12.3892 6.3462 12.4474C6.42883 12.495 6.49494 12.5639 6.55553 12.6274C6.57757 12.6486 6.5996 12.6751 6.62164 12.6962C6.73181 12.8021 6.87503 12.8762 7.02927 12.9027C7.07334 12.908 7.1119 12.9133 7.15597 12.9133L7.1725 11.6214C6.81995 11.4308 6.58858 11.1026 6.52248 10.7214C6.51697 10.7002 6.51697 10.679 6.51697 10.6631L6.50595 10.6578C6.31866 10.6314 6.14239 10.5731 5.97713 10.4831C5.87797 10.4355 5.78983 10.3666 5.71822 10.2766C5.65763 10.1919 5.61356 10.0966 5.59703 9.99074C5.575 9.90073 5.56949 9.80543 5.5805 9.71013C5.5805 9.63071 5.63559 9.5513 5.71271 9.51953C5.82839 9.48247 5.92755 9.56718 5.97713 9.65189C6.02119 9.72601 6.05976 9.80543 6.09832 9.87956C6.11484 9.91132 6.13137 9.94309 6.14239 9.97486C6.1534 9.99603 6.16442 10.0172 6.17544 10.0437C6.25256 10.1972 6.3462 10.3931 6.51146 10.462C6.51146 10.4143 6.51697 10.3666 6.52248 10.319C6.52799 10.2713 6.53901 10.229 6.54452 10.1866C6.54452 10.1602 6.55002 10.1284 6.56104 10.0966C6.57206 10.0437 6.58858 9.98545 6.60511 9.9325C6.62164 9.88485 6.65469 9.84779 6.69876 9.82132C6.75935 9.80014 6.82545 9.81073 6.86402 9.85838C6.90258 9.90603 6.92461 9.95897 6.93012 10.0172L6.99622 10.4672C7.00173 10.5308 7.01826 10.5943 7.03478 10.6578C7.05131 10.7108 7.08987 10.7531 7.14496 10.7796C7.15046 10.7796 7.16148 10.7849 7.16699 10.7849L7.20004 8.18002C7.20004 8.05824 7.12843 7.94706 7.01826 7.89412L6.27459 7.53938C6.27459 7.54468 6.26908 7.54468 6.26908 7.54997C6.13688 7.7194 5.98263 7.86764 5.80636 7.99471C5.61906 8.13237 5.42075 8.14825 5.24448 8.03707C5.0682 7.91529 4.93049 7.75116 4.85337 7.55527C4.8093 7.45467 4.80379 7.37525 4.83133 7.31172C4.86989 7.2323 4.94701 7.20583 5.06269 7.22171L5.1288 7.2323C5.31609 7.26407 5.50889 7.29584 5.68517 7.25348L3.30544 6.11516L3.2779 6.14163C3.20078 6.19987 3.11264 6.23693 3.0245 6.25811C2.8317 6.30576 2.62788 6.30576 2.43508 6.274C2.24227 6.23693 2.06049 6.15752 1.91176 6.03045C1.84014 5.96691 1.76302 5.8875 1.75751 5.80278C1.75751 5.72866 1.80709 5.68101 1.91727 5.66513C2.04947 5.65454 2.18719 5.64395 2.3249 5.64924H2.36897L0.496039 4.75447C0.424426 4.72271 0.36934 4.66447 0.341797 4.59034V4.58505V4.57446C0.352814 4.52681 0.36934 4.47916 0.391375 4.43151C0.4079 4.38386 0.429935 4.33091 0.451969 4.28326C0.462987 4.26208 0.474004 4.24091 0.485021 4.21973L0.49053 4.21443L0.496039 4.20914C0.589685 4.16149 0.699858 4.16149 0.787996 4.20914L2.31389 4.93978C2.27533 4.89213 2.23126 4.84448 2.18719 4.79683C2.11558 4.72271 2.04947 4.64329 1.98888 4.55858C1.92828 4.47916 1.88972 4.38386 1.8787 4.28326C1.8787 4.18267 1.95583 4.10325 2.06049 4.09795C2.15964 4.08736 2.24778 4.1456 2.31389 4.20384C2.46813 4.33091 2.59483 4.48975 2.68847 4.65917C2.78212 4.8286 2.84272 5.00861 2.87026 5.19921L4.4953 5.97221C4.47878 5.91926 4.46225 5.87161 4.44022 5.82396C4.40717 5.76043 4.37411 5.6916 4.34106 5.62807C4.31352 5.57512 4.28598 5.52218 4.26394 5.46923C4.20335 5.35805 4.15377 5.23627 4.11521 5.11979C4.08767 5.0139 4.06012 4.88154 4.13724 4.80742C4.1703 4.77565 4.21436 4.75977 4.25843 4.75977C4.42369 4.76506 4.61649 4.97155 4.65505 5.0139C4.80379 5.18333 4.90294 5.38981 4.94701 5.60689C4.94701 5.61218 5.02413 6.01456 4.95803 6.18928L6.25807 6.81404C6.25807 6.80345 6.25807 6.79286 6.25256 6.78227C6.24154 6.74521 6.22501 6.70815 6.214 6.67108C6.20849 6.64991 6.19196 6.62343 6.18094 6.59696C6.17544 6.58108 6.16442 6.57049 6.15891 6.5546C6.08179 6.38518 6.0873 6.24752 6.18094 6.15752C6.22501 6.11516 6.29112 6.08869 6.35171 6.09398C6.41782 6.10457 6.47841 6.14163 6.51697 6.19458C6.5996 6.31106 6.63265 6.45401 6.61613 6.59167C6.61062 6.71344 6.57757 6.82992 6.51146 6.93051L7.35428 7.3329C7.48098 7.39643 7.63522 7.39114 7.76192 7.3276L8.56067 6.91463C8.55516 6.90934 8.55516 6.90934 8.54966 6.90404C8.47254 6.81404 8.42296 6.68697 8.41194 6.51754C8.39541 6.37989 8.42847 6.23693 8.5111 6.12046C8.54966 6.06751 8.60474 6.03045 8.67085 6.01986C8.73695 6.01456 8.80305 6.03574 8.84712 6.0781C8.94077 6.16811 8.94628 6.30047 8.86916 6.47519C8.86365 6.49107 8.85814 6.50695 8.84712 6.51754C8.83611 6.54402 8.82509 6.56519 8.81407 6.59167C8.80305 6.61284 8.79755 6.63402 8.79204 6.6552C8.78653 6.67108 8.78102 6.68697 8.77551 6.70285C8.77 6.73462 8.77 6.76639 8.77 6.80345L10.07 6.13104C9.99292 5.96691 10.07 5.53277 10.0755 5.52747C10.1141 5.3104 10.2133 5.10391 10.3675 4.93449C10.4061 4.89213 10.5989 4.68564 10.7641 4.68035C10.8137 4.68035 10.8523 4.69623 10.8853 4.728C10.9735 4.81271 10.9294 4.96625 10.9073 5.04038C10.8688 5.16215 10.8192 5.27863 10.7586 5.39511C10.7311 5.45335 10.698 5.51688 10.6705 5.57512C10.6429 5.63336 10.6099 5.6916 10.5823 5.74984C10.5603 5.79749 10.5383 5.85044 10.5217 5.90338L11.9705 5.15685C11.9926 4.93978 12.0587 4.728 12.1633 4.5321C12.257 4.35738 12.3837 4.20384 12.5379 4.07148C12.6095 4.01324 12.6921 3.955 12.7913 3.9603C12.896 3.96559 12.9731 4.04501 12.9731 4.1456C12.9621 4.2462 12.9235 4.3415 12.8629 4.42092C12.8023 4.50563 12.7362 4.58505 12.6646 4.65917C12.5875 4.73329 12.5214 4.81271 12.4608 4.89742L14.196 4.00265C14.2401 3.98147 14.2896 3.96559 14.3447 3.96559H14.3558L14.3613 3.97618C14.3778 3.99736 14.3943 4.01854 14.4053 4.03971C14.4329 4.07678 14.4494 4.10854 14.4714 4.1456C14.488 4.16149 14.5045 4.17737 14.5155 4.19325C14.5265 4.21443 14.5375 4.24091 14.5375 4.26208C14.5486 4.28326 14.5596 4.30973 14.5706 4.33091C14.5871 4.36268 14.6036 4.40504 14.6147 4.4368L14.6202 4.44739L14.6147 4.45798C14.5871 4.49504 14.5541 4.52151 14.51 4.54269L12.5269 5.56453C12.571 5.56983 12.6205 5.56983 12.6646 5.56453C12.8023 5.56453 12.9345 5.56983 13.0722 5.58042C13.1769 5.591 13.2375 5.63866 13.2375 5.71807C13.2375 5.80278 13.1549 5.8875 13.0833 5.94574C12.9345 6.06751 12.7527 6.15222 12.5544 6.18399C12.3616 6.22105 12.1578 6.21576 11.965 6.1734C11.8714 6.15222 11.7832 6.10987 11.7116 6.05692C11.6951 6.04633 11.6786 6.03045 11.6565 6.01456L9.33188 7.21112C9.51917 7.26407 9.71749 7.22701 9.9158 7.19524L9.98741 7.18465C10.1031 7.16877 10.1802 7.19524 10.2188 7.27466C10.2573 7.35937 10.2243 7.45467 10.1967 7.5182C10.1196 7.7141 9.9819 7.87823 9.80562 8.00001C9.62935 8.11119 9.43104 8.09531 9.24374 7.95765C9.06747 7.83058 8.91323 7.67704 8.78102 7.50762L8.77551 7.50232L8.08693 7.85705C7.96574 7.92059 7.88862 8.03707 7.88862 8.16943L7.85557 10.6843C7.90515 10.6631 7.94371 10.6208 7.96023 10.5678C7.98227 10.5043 7.99328 10.4408 7.99879 10.3772L8.0649 9.92721C8.07041 9.86897 8.09244 9.81602 8.131 9.76837C8.17507 9.72601 8.24117 9.71013 8.29626 9.73131C8.34584 9.75778 8.37338 9.79484 8.38991 9.84249C8.41194 9.89544 8.42847 9.95368 8.43398 10.0119C8.44499 10.0384 8.4505 10.0702 8.4505 10.0966C8.45601 10.1284 8.46703 10.176 8.47254 10.2237C8.47804 10.2713 8.48355 10.319 8.48355 10.3666C8.6433 10.2978 8.74246 10.1072 8.81958 9.95368C8.8306 9.9325 8.84161 9.90603 8.85263 9.88485C8.87467 9.84779 8.89119 9.81073 8.90772 9.77366C8.94077 9.70484 8.97933 9.63071 9.01789 9.56718C9.06747 9.48247 9.16662 9.39775 9.2823 9.43482C9.36493 9.47188 9.41451 9.546 9.42002 9.63071C9.43104 9.72601 9.42553 9.82132 9.40349 9.91132C9.38697 10.0119 9.3429 10.1072 9.2823 10.1919C9.21069 10.2766 9.12255 10.3455 9.01789 10.3984C8.85263 10.4884 8.67636 10.5467 8.48906 10.5731L8.48355 10.5784C8.48355 10.5943 8.47804 10.6102 8.47804 10.6261V10.642C8.41745 11.0179 8.1916 11.3408 7.85006 11.5367L7.83353 12.8339C7.88311 12.8392 7.93269 12.8392 7.98778 12.8286C8.14202 12.8021 8.27973 12.728 8.39541 12.6221C8.42296 12.5956 8.4505 12.5692 8.47254 12.5427C8.53313 12.4792 8.59923 12.4156 8.67085 12.368C8.76449 12.3097 8.90772 12.2674 9.01238 12.3362C9.11154 12.3997 9.12806 12.5162 9.05094 12.6645C9.02891 12.7068 9.00136 12.7545 8.97382 12.7968C9.15561 12.8604 9.35943 12.8498 9.50816 12.8286C9.68994 12.8021 9.86622 12.7386 10.0205 12.638C10.0425 12.6221 10.0645 12.6062 10.0866 12.5903C9.99292 12.5268 9.9158 12.4474 9.86071 12.3468C9.7891 12.225 9.73401 12.0927 9.70096 11.955C9.63486 11.7167 9.65138 11.4573 9.75054 11.2297C9.79461 11.1185 9.87724 11.0232 9.97639 10.9543C10.0755 10.8908 10.2078 10.8961 10.3014 10.9649C10.362 11.0179 10.395 11.0973 10.395 11.1714C10.5162 11.1926 10.6484 11.1608 10.7972 11.0708C10.9349 10.9914 11.0451 10.8802 11.1277 10.7479C10.9239 10.7743 10.7145 10.7743 10.5052 10.7426C10.395 10.7267 10.2959 10.6949 10.1967 10.642C10.0976 10.5837 10.0205 10.499 9.97088 10.3984C9.91029 10.3031 9.88825 10.1866 9.89927 10.0755C9.9213 9.96956 10.0039 9.86367 10.1196 9.86897C10.2408 9.87426 10.3179 9.99074 10.373 10.0755C10.4171 10.1443 10.4667 10.2025 10.5217 10.2608C10.5989 10.2131 10.6374 10.1125 10.6595 10.0437C10.6925 9.9325 10.709 9.81073 10.7201 9.69425C10.7311 9.58836 10.7476 9.48776 10.7751 9.38717C10.7972 9.28657 10.8468 9.19127 10.9129 9.11715C10.9845 9.04302 11.1002 9.00596 11.1938 9.0695C11.2874 9.13303 11.304 9.2548 11.315 9.33951C11.326 9.39775 11.326 9.46129 11.315 9.51953C11.3921 9.51423 11.4692 9.48247 11.5243 9.42952C11.6125 9.33952 11.6786 9.22833 11.7171 9.11185C11.7447 9.04302 11.7667 8.98478 11.7832 8.92654C11.7887 8.90537 11.7997 8.88419 11.8053 8.85772C11.8163 8.82065 11.8273 8.7783 11.8438 8.74124C11.8603 8.69359 11.932 8.54004 12.0862 8.55063C12.1964 8.56122 12.29 8.63535 12.3176 8.73594C12.3506 8.84713 12.3451 8.96361 12.3065 9.0695C12.2459 9.27069 12.0972 9.44011 11.8548 9.58836C11.6235 9.72601 11.4197 9.78425 11.2324 9.76308C11.1993 9.8372 11.1552 9.90603 11.1112 9.97486C10.9845 10.176 10.8468 10.3031 10.6815 10.3772C10.7586 10.4143 10.8357 10.4355 10.9184 10.4567C10.9845 10.4725 11.0506 10.4831 11.1112 10.4937C11.1497 10.5043 11.1938 10.5096 11.2324 10.5043C11.2489 10.4672 11.2654 10.4302 11.2819 10.3931L11.304 10.3455C11.3095 10.3349 11.315 10.3243 11.3205 10.3084C11.3425 10.2555 11.3646 10.1919 11.4141 10.1549C11.4692 10.1178 11.5408 10.1019 11.6014 10.1125C11.6841 10.1231 11.7447 10.1602 11.7832 10.2184C11.8548 10.3296 11.8163 10.499 11.7722 10.6314C12.0421 10.7002 12.3286 10.6208 12.5159 10.4196C12.5599 10.3772 12.593 10.3296 12.6205 10.2766C12.6316 10.2555 12.6426 10.2343 12.6536 10.2131C12.6701 10.1813 12.6866 10.1443 12.7087 10.1125C12.7417 10.0596 12.7968 10.0225 12.8574 9.99603C12.918 9.96427 12.9896 9.95368 13.0612 9.96956C13.1218 9.99603 13.1714 10.0384 13.1989 10.0913C13.2375 10.1443 13.2706 10.2025 13.2926 10.2661C13.3311 10.409 13.243 10.5414 13.1659 10.6208C12.9841 10.7955 12.7472 10.9067 12.4938 10.9332C12.2074 10.9702 11.9099 10.9279 11.651 10.8802C11.4968 11.1185 11.2324 11.2614 11.0396 11.3355C10.8137 11.4256 10.5713 11.4679 10.3289 11.4573C10.3234 11.4785 10.3179 11.505 10.3124 11.5261C10.2959 11.5844 10.2794 11.6479 10.2683 11.7062C10.2298 11.8756 10.2133 12.1138 10.34 12.278L10.3565 12.2568C10.4501 12.1085 10.5768 11.955 10.7586 11.9391C10.8192 11.9338 10.8743 11.9497 10.9184 11.9921C10.9955 12.0662 11.0175 12.1933 11.012 12.2833C10.9955 12.4527 10.9129 12.6115 10.7862 12.728C10.6484 12.8498 10.4832 12.9451 10.3069 12.998C10.1141 13.0616 9.9158 13.1145 9.71198 13.1463C9.37595 13.1939 9.03442 13.1886 8.69839 13.1251C8.55516 13.2627 8.39542 13.3845 8.21363 13.4745C8.1916 13.4851 8.17507 13.4957 8.15303 13.5063C8.04837 13.5592 7.94371 13.6122 7.86108 13.6916C7.84455 13.7075 7.82803 13.7287 7.8115 13.7498L7.78946 15.6135C7.78946 15.64 7.78396 15.6612 7.77845 15.6876L7.77294 15.6982H7.76192C7.72887 15.7035 7.69031 15.7035 7.65726 15.7088C7.64624 15.7088 7.64073 15.7088 7.62971 15.7088C7.62421 15.7088 7.61319 15.7088 7.60768 15.7088C7.57463 15.73 7.54709 15.73 7.51403 15.73ZM7.33776 15.6823H7.34877C7.37632 15.6876 7.39835 15.6876 7.4259 15.6876C7.48649 15.6929 7.54709 15.6929 7.60768 15.6876C7.61319 15.6876 7.62421 15.6876 7.62971 15.6876C7.64073 15.6876 7.64624 15.6876 7.65726 15.6876C7.6848 15.6876 7.71785 15.6823 7.7454 15.677C7.75091 15.6612 7.7509 15.6453 7.7509 15.6294L7.77294 13.7551L7.77845 13.7498C7.79497 13.7234 7.81701 13.7022 7.83353 13.681C7.92167 13.5963 8.02634 13.5434 8.13651 13.4851C8.15854 13.4745 8.17507 13.4639 8.1971 13.4533C8.37338 13.3633 8.53864 13.2416 8.67635 13.1039L8.68186 13.0986H8.69288C9.02891 13.1621 9.36493 13.1674 9.70096 13.1198C9.89927 13.088 10.0976 13.0404 10.2904 12.9715C10.4612 12.9186 10.6264 12.8286 10.7586 12.7121C10.8798 12.6009 10.9569 12.4527 10.9735 12.2938C10.979 12.2091 10.9569 12.0927 10.8963 12.0344C10.8633 12.0027 10.8192 11.9868 10.7696 11.9921C10.6044 12.0079 10.4942 12.1456 10.4006 12.2886L10.3565 12.3574L10.34 12.3362C10.1857 12.1615 10.2022 11.8968 10.2408 11.7115C10.2518 11.6532 10.2739 11.5897 10.2904 11.5314C10.2959 11.505 10.3069 11.4732 10.3124 11.4467L10.3179 11.4308H10.3345C10.5768 11.4414 10.8192 11.4044 11.0451 11.3144C11.2379 11.2402 11.4968 11.0973 11.6455 10.8643L11.651 10.8537H11.6675C11.9264 10.9014 12.2239 10.949 12.5104 10.9067C12.7583 10.8802 12.9841 10.7743 13.1604 10.6049C13.232 10.5308 13.3146 10.4143 13.2761 10.2872C13.254 10.229 13.2265 10.1708 13.1879 10.1231C13.1604 10.0755 13.1218 10.0384 13.0722 10.0172C13.0172 10.0066 12.9566 10.0119 12.9015 10.0437C12.8464 10.0649 12.8023 10.1019 12.7693 10.1443C12.7472 10.1708 12.7362 10.2025 12.7197 10.2396C12.7087 10.2608 12.6977 10.2819 12.6866 10.3031C12.6536 10.3561 12.615 10.409 12.571 10.4514C12.3671 10.6684 12.0531 10.7479 11.7612 10.6684L11.7392 10.6631L11.7447 10.642C11.7832 10.5414 11.8328 10.3561 11.7667 10.2449C11.7392 10.1972 11.6841 10.1708 11.6125 10.1602C11.5574 10.1496 11.5023 10.1602 11.4527 10.1919C11.4141 10.2237 11.3921 10.2766 11.3756 10.3296C11.3701 10.3455 11.3646 10.3561 11.3591 10.3666L11.337 10.4143C11.3205 10.4567 11.304 10.499 11.2819 10.5414L11.2764 10.552H11.2654C11.2158 10.5573 11.1663 10.552 11.1167 10.5361C11.0561 10.5255 10.99 10.5149 10.9239 10.499C10.8247 10.4778 10.7256 10.4461 10.6374 10.3984L10.5989 10.3772L10.6429 10.3614C10.8137 10.2978 10.9624 10.1655 11.0946 9.95897C11.1387 9.89014 11.1828 9.81602 11.2158 9.7419L11.2213 9.72601H11.2379C11.4197 9.75249 11.6235 9.69425 11.8493 9.55659C12.0807 9.41893 12.2239 9.2548 12.279 9.0642C12.3176 8.9636 12.3176 8.85242 12.29 8.75183C12.2625 8.66711 12.1854 8.60358 12.0917 8.59828H12.0862C11.9705 8.59828 11.9099 8.72535 11.8934 8.76771C11.8769 8.80477 11.8659 8.84183 11.8548 8.88419C11.8493 8.90537 11.8383 8.93184 11.8328 8.95302C11.8163 9.01126 11.7942 9.0695 11.7667 9.13832C11.7281 9.2601 11.6565 9.37658 11.5629 9.47188C11.4913 9.53541 11.3976 9.57247 11.2985 9.57247H11.2764L11.2819 9.5513C11.293 9.48776 11.2985 9.42423 11.2874 9.36069C11.2764 9.28128 11.2599 9.17009 11.1828 9.11715C11.1112 9.0642 11.012 9.09597 10.9569 9.1595C10.8963 9.23362 10.8468 9.32363 10.8247 9.41364C10.7972 9.51423 10.7807 9.61483 10.7696 9.71543C10.7586 9.8372 10.7366 9.95368 10.7035 10.0702C10.676 10.1549 10.6319 10.2713 10.5328 10.319L10.5217 10.3243L10.5107 10.3137C10.4446 10.2555 10.3895 10.1866 10.34 10.1125C10.2849 10.0331 10.2188 9.9325 10.1196 9.92191C10.026 9.91662 9.95987 10.0066 9.94334 10.0913C9.93232 10.1919 9.95436 10.2978 10.0094 10.3878C10.0535 10.4831 10.1251 10.5625 10.2188 10.6155C10.3069 10.6631 10.4061 10.6949 10.5107 10.7108C10.7256 10.7426 10.9459 10.7426 11.1607 10.7108L11.2048 10.7055L11.1773 10.7531C11.1718 10.7584 11.1663 10.769 11.1663 10.7743C11.0836 10.912 10.9624 11.0285 10.8192 11.1132C10.654 11.2085 10.4997 11.2455 10.3675 11.2138L10.351 11.2085V11.1926C10.3565 11.1185 10.3289 11.0496 10.2739 11.002C10.1967 10.9438 10.0811 10.9385 9.99843 10.9967C9.90478 11.0602 9.82766 11.1502 9.78359 11.2508C9.68443 11.4732 9.66791 11.7167 9.73401 11.9497C9.76706 12.0821 9.82215 12.2091 9.88825 12.3309C9.94334 12.4315 10.026 12.5162 10.1251 12.5745L10.1472 12.5903L10.1251 12.6062C10.0976 12.6327 10.0645 12.6539 10.0315 12.6751C9.87173 12.7756 9.68994 12.8445 9.50265 12.871C9.3429 12.8974 9.11705 12.908 8.92424 12.8286L8.90221 12.818L8.91323 12.7968C8.94628 12.7492 8.97382 12.7015 9.00136 12.6486C9.03992 12.5745 9.08399 12.4368 8.97933 12.368C8.89119 12.3097 8.76449 12.3521 8.68737 12.3997C8.61576 12.4421 8.55516 12.5056 8.49457 12.5639C8.46703 12.5903 8.43948 12.6168 8.41745 12.6433C8.30177 12.7545 8.15304 12.8286 7.99328 12.8604C7.93269 12.871 7.8721 12.871 7.8115 12.8657H7.79497L7.8115 11.5156L7.82252 11.5103C8.15854 11.325 8.3844 11.0073 8.43948 10.642V10.6261C8.43948 10.6102 8.44499 10.589 8.44499 10.5731V10.5573L8.46152 10.552L8.48355 10.5414C8.66534 10.5149 8.84161 10.4567 9.00687 10.3719C9.10603 10.3243 9.18866 10.2608 9.25476 10.176C9.30985 10.0966 9.34841 10.0066 9.36493 9.91132C9.38697 9.82132 9.39248 9.73131 9.38146 9.6413C9.38146 9.57247 9.33739 9.50894 9.27129 9.48247C9.18315 9.45599 9.10603 9.52482 9.05645 9.59895C9.01789 9.66248 8.98484 9.7366 8.94628 9.80543C8.92975 9.84249 8.90772 9.88485 8.89119 9.92191C8.88017 9.94309 8.86916 9.96427 8.85814 9.98545C8.77551 10.1549 8.67085 10.3666 8.47254 10.4302L8.44499 10.4408V10.4143C8.44499 10.3614 8.43948 10.3031 8.43398 10.2449C8.42847 10.1972 8.41745 10.1496 8.41194 10.1178C8.41194 10.086 8.40643 10.0596 8.39541 10.0384C8.3844 9.98015 8.36787 9.92191 8.35135 9.86897C8.34033 9.8319 8.31279 9.80014 8.27973 9.77896C8.24117 9.76308 8.1916 9.77366 8.16405 9.80543C8.131 9.84249 8.11447 9.89014 8.10897 9.94309L8.04286 10.3931C8.03735 10.4567 8.02083 10.5255 7.99879 10.589C7.97676 10.6526 7.93269 10.7055 7.86659 10.732C7.85557 10.7373 7.84455 10.7373 7.83904 10.7426L7.8115 10.7479L7.84455 8.18002C7.85006 8.03177 7.93269 7.89941 8.0649 7.83058L8.79754 7.44938L8.80305 7.48114C8.80305 7.48644 8.80305 7.49173 8.80856 7.49173C8.94077 7.65586 9.0895 7.80411 9.26027 7.93118C9.38146 8.02118 9.56875 8.1006 9.77808 7.97353C9.94885 7.85705 10.0755 7.69822 10.1527 7.51291C10.1802 7.45467 10.2078 7.36996 10.1747 7.30113C10.1472 7.24289 10.0811 7.21642 9.98741 7.2323L9.9158 7.24289C9.70096 7.27995 9.47511 7.31701 9.26578 7.24289L9.22171 7.22701L11.6565 5.97221L11.6675 5.9828C11.6896 6.00398 11.7116 6.01986 11.7281 6.03574C11.7997 6.08869 11.8824 6.12575 11.965 6.14693C12.1523 6.18928 12.3506 6.19458 12.5379 6.15752C12.7252 6.12575 12.9015 6.04104 13.0447 5.92456C13.0943 5.8822 13.1824 5.79749 13.1824 5.72337C13.1824 5.65454 13.1163 5.63336 13.0557 5.62807C12.9235 5.61748 12.7913 5.61218 12.6591 5.61218C12.593 5.61748 12.5214 5.61748 12.4498 5.60689L12.3892 5.5963L14.488 4.52151C14.521 4.50563 14.5486 4.48445 14.5706 4.45798C14.5596 4.42621 14.5486 4.39445 14.532 4.36268C14.521 4.33621 14.51 4.31503 14.499 4.28856V4.28326C14.499 4.26208 14.4935 4.2462 14.4824 4.22502C14.4714 4.20914 14.4604 4.19855 14.4494 4.18267L14.4439 4.17737C14.4274 4.1456 14.4053 4.11384 14.3778 4.07148C14.3668 4.0503 14.3502 4.03442 14.3392 4.01854C14.3007 4.01854 14.2566 4.03442 14.2235 4.0503L12.3506 5.0192L12.3892 4.95566C12.4608 4.84448 12.5434 4.74388 12.6426 4.64858C12.7142 4.57446 12.7803 4.49504 12.8354 4.41562C12.896 4.3415 12.929 4.25149 12.9345 4.16149C12.9345 4.08736 12.8739 4.01854 12.7913 4.01854C12.7032 4.01324 12.6316 4.06619 12.5654 4.11913C12.4167 4.2462 12.29 4.39974 12.2019 4.56916C12.0972 4.75977 12.0311 4.97155 12.0146 5.18862V5.19921L10.4667 5.99868L10.4777 5.95633C10.4942 5.8875 10.5162 5.81867 10.5493 5.74984C10.5768 5.6916 10.6044 5.63336 10.6374 5.57512C10.665 5.51688 10.698 5.45864 10.7256 5.39511C10.7862 5.28392 10.8357 5.16744 10.8688 5.05096C10.8963 4.95037 10.9184 4.83389 10.8578 4.77565C10.8302 4.74918 10.8027 4.73859 10.7641 4.74388C10.6484 4.74918 10.4942 4.87625 10.4006 4.98214C10.2573 5.14627 10.1582 5.34746 10.1196 5.55924C10.0976 5.68631 10.048 6.03574 10.1196 6.15222L10.1306 6.16811L8.74246 6.88286L8.73695 6.85639C8.72593 6.80874 8.72593 6.76109 8.73695 6.71344C8.74246 6.69756 8.74797 6.68167 8.75348 6.66579C8.75898 6.64461 8.76449 6.61814 8.77551 6.59696C8.78653 6.57049 8.79754 6.54402 8.80856 6.52284C8.81407 6.50695 8.81958 6.49637 8.8306 6.48048C8.90221 6.32165 8.8967 6.20517 8.81407 6.12575C8.78102 6.08869 8.72593 6.0728 8.67635 6.0781C8.62127 6.08869 8.57169 6.12046 8.54415 6.16281C8.46703 6.274 8.43397 6.40106 8.4505 6.53343C8.46152 6.69226 8.50559 6.81404 8.5772 6.89345C8.58271 6.89875 8.58822 6.90404 8.59373 6.90934C8.59923 6.91463 8.60474 6.91993 8.61025 6.92522L8.63229 6.9464L7.78396 7.38584C7.64624 7.45467 7.48098 7.45997 7.33776 7.39114L6.45638 6.96758L6.46739 6.9464C6.53901 6.8458 6.57757 6.72932 6.57757 6.60755C6.59409 6.47519 6.56104 6.34282 6.48392 6.23164C6.45087 6.18928 6.4068 6.15752 6.35171 6.14693C6.30214 6.14163 6.25256 6.16281 6.214 6.19458C6.11484 6.29517 6.14789 6.44342 6.19747 6.54931C6.20298 6.56519 6.20849 6.57578 6.21951 6.59167C6.23603 6.61814 6.24705 6.64461 6.25807 6.67108C6.26908 6.70815 6.2801 6.74521 6.29663 6.78227C6.30214 6.80874 6.30213 6.83521 6.30213 6.85639V6.88816L4.90845 6.22105L4.90294 6.19458C4.96354 6.06751 4.91947 5.72337 4.89743 5.61748C4.85887 5.4057 4.75972 5.20451 4.61649 5.04038C4.51734 4.93449 4.3631 4.80742 4.25292 4.80212C4.21436 4.80212 4.18682 4.81271 4.15928 4.83389C4.09868 4.89742 4.12072 5.0192 4.14826 5.1092C4.18682 5.22568 4.2364 5.34216 4.29149 5.45335C4.31903 5.50629 4.34106 5.55924 4.36861 5.61218C4.40166 5.67572 4.43471 5.73925 4.46776 5.80808C4.50081 5.87161 4.52285 5.94044 4.53937 6.00398L4.55039 6.04633L2.8317 5.22568V5.21509C2.80415 5.02449 2.74356 4.84448 2.64991 4.68035C2.55627 4.51093 2.43508 4.36268 2.28083 4.23561C2.21473 4.17737 2.14312 4.12972 2.05498 4.13502C1.97235 4.14031 1.91176 4.20384 1.91176 4.28326C1.92277 4.37327 1.95583 4.46327 2.01091 4.5374C2.07151 4.62211 2.13761 4.70153 2.20922 4.77036C2.27533 4.83918 2.33592 4.90801 2.39652 4.98214L2.4516 5.05096L0.765961 4.2462C0.688841 4.20914 0.595194 4.20914 0.512564 4.24091C0.501547 4.26208 0.49053 4.27797 0.485021 4.29914C0.462987 4.3468 0.440952 4.39445 0.424426 4.4421C0.4079 4.48975 0.391375 4.5321 0.380357 4.57975C0.4079 4.64329 0.45197 4.69094 0.512564 4.71741L2.53974 5.68631H2.35245C2.22024 5.68631 2.08252 5.6916 1.95032 5.70219C1.83464 5.71807 1.82362 5.76572 1.82362 5.79749C1.82362 5.87161 1.90625 5.94574 1.96133 5.99868C2.10456 6.11516 2.28083 6.19458 2.46813 6.23164C2.65542 6.2687 2.85373 6.26341 3.04103 6.22105C3.12916 6.19987 3.21179 6.16281 3.2779 6.10987L3.32747 6.06751L5.82288 7.25877L5.77331 7.27466C5.56949 7.33819 5.35465 7.30113 5.14532 7.26936L5.07922 7.25877C4.98557 7.24289 4.91947 7.26407 4.89193 7.3276C4.86989 7.38055 4.8754 7.44938 4.91396 7.53938C4.99108 7.72469 5.12329 7.88882 5.29406 8.00001C5.49787 8.12707 5.68517 8.04766 5.80636 7.95765C5.97713 7.83058 6.13137 7.68233 6.25807 7.5182C6.26357 7.51291 6.26357 7.50762 6.26357 7.50762V7.47585L7.05131 7.85176C7.17801 7.91 7.26064 8.03707 7.26064 8.17472L7.22758 10.822H7.20555C7.18352 10.822 7.16699 10.8167 7.14496 10.8114C7.07885 10.7849 7.02927 10.732 7.01275 10.6684C6.99071 10.6049 6.9797 10.5414 6.96868 10.4725L6.90258 10.0225C6.89707 9.96956 6.88054 9.92191 6.84749 9.88485C6.81995 9.85308 6.77037 9.84249 6.73181 9.85838C6.69876 9.87426 6.67121 9.90603 6.6602 9.94309C6.63816 9.99603 6.62714 10.049 6.61613 10.1072C6.60511 10.1337 6.5996 10.1602 6.5996 10.1866C6.59409 10.229 6.58308 10.2713 6.57757 10.319C6.57206 10.3719 6.56655 10.4302 6.56655 10.4884V10.5149L6.53901 10.5043C6.3407 10.4408 6.23603 10.229 6.1534 10.0596C6.14238 10.0384 6.13137 10.0172 6.12035 9.99603C6.10382 9.96427 6.0873 9.9325 6.07628 9.90073C6.03772 9.82132 5.99916 9.74719 5.9606 9.67836C5.91653 9.60424 5.8339 9.53541 5.74576 9.56188C5.68517 9.58836 5.6411 9.65189 5.6411 9.72072C5.63008 9.81073 5.63559 9.90603 5.65763 9.99603C5.67415 10.0913 5.71271 10.1866 5.7678 10.2608C5.8339 10.3402 5.91653 10.409 6.01569 10.4567C6.18094 10.5414 6.35171 10.5996 6.53901 10.6261L6.54452 10.6314L6.55553 10.6367L6.57206 10.642L6.57757 10.6578C6.57757 10.679 6.58308 10.7055 6.58308 10.7267C6.64367 11.1026 6.87503 11.4203 7.22208 11.6056L7.23309 11.6109L7.21657 12.9663H7.20004C7.15046 12.9715 7.09538 12.9663 7.0458 12.961C6.88605 12.9292 6.73732 12.8551 6.61613 12.7439C6.59409 12.7227 6.57206 12.6962 6.54452 12.6751C6.48392 12.6115 6.41782 12.548 6.3407 12.5003C6.25807 12.4474 6.13688 12.4103 6.04874 12.4686C5.93306 12.5374 5.99365 12.6856 6.0267 12.7492C6.05425 12.8021 6.08179 12.8498 6.11484 12.8974L6.12586 12.9186L6.10382 12.9292C5.94958 12.9927 5.75678 13.0033 5.52542 12.9715C5.33812 12.9451 5.15634 12.8762 4.99659 12.7757C4.96354 12.7545 4.93049 12.7333 4.90294 12.7068L4.88091 12.6909L4.90294 12.6751C5.0021 12.6168 5.08473 12.5321 5.13981 12.4315C5.21143 12.3097 5.261 12.1827 5.29406 12.0503C5.36016 11.8173 5.34363 11.5738 5.24448 11.3514C5.20041 11.2455 5.1288 11.1608 5.02964 11.0973C4.94701 11.0443 4.83133 11.0496 4.75421 11.1079C4.70463 11.1555 4.67158 11.2244 4.67709 11.2985V11.3144L4.66056 11.3197C4.52836 11.3514 4.37411 11.3144 4.20886 11.2191C4.06563 11.1344 3.94995 11.0179 3.86181 10.8855C3.8563 10.8749 3.85079 10.8696 3.85079 10.8643L3.82325 10.8167L3.86732 10.822C4.08216 10.8537 4.3025 10.8537 4.51734 10.822C4.622 10.8061 4.72116 10.7743 4.8093 10.7267C4.89743 10.6737 4.96905 10.5943 5.01312 10.499C5.0682 10.409 5.09575 10.3031 5.07922 10.1972C5.0682 10.1284 5.00761 10.0225 4.90294 10.0278C4.79828 10.0331 4.73768 10.1284 4.68811 10.2078L4.6826 10.2131C4.63302 10.2872 4.57793 10.3561 4.51183 10.4143L4.50081 10.4249L4.4898 10.4196C4.39064 10.3719 4.34657 10.2555 4.31903 10.1708C4.28598 10.0543 4.26394 9.9325 4.25292 9.81602C4.24191 9.71543 4.22538 9.60953 4.19784 9.51423C4.1758 9.41893 4.13173 9.32893 4.06563 9.2548C4.01055 9.19656 3.91139 9.1648 3.83978 9.21245C3.77367 9.2601 3.74613 9.36069 3.73511 9.45599C3.7241 9.51953 3.7296 9.58306 3.74062 9.6466L3.74613 9.66777H3.7241C3.62494 9.66777 3.53129 9.63071 3.45968 9.56718C3.36603 9.47188 3.29442 9.3554 3.25586 9.23362C3.23383 9.18068 3.21179 9.12244 3.18976 9.05361C3.18425 9.03243 3.17323 9.00596 3.16772 8.98478C3.15671 8.94772 3.14569 8.91066 3.12916 8.8736C3.11264 8.83124 3.05204 8.70417 2.93085 8.70417C2.83721 8.71476 2.76009 8.773 2.73805 8.85772C2.71051 8.95831 2.71602 9.0695 2.74907 9.17009C2.80966 9.36599 2.95289 9.52482 3.17874 9.66777C3.4046 9.80543 3.60841 9.85838 3.7902 9.8372H3.80673L3.81223 9.85308C3.85079 9.92721 3.88936 10.0013 3.93342 10.0702C4.07114 10.2819 4.21436 10.4143 4.38513 10.4725L4.4292 10.4884L4.39064 10.5096C4.3025 10.5573 4.20335 10.589 4.10419 10.6102C4.03809 10.6261 3.97198 10.6367 3.91139 10.6473C3.86181 10.6578 3.81223 10.6631 3.76817 10.6578H3.75715L3.75164 10.6473C3.7241 10.589 3.70206 10.5361 3.68003 10.4725C3.67452 10.462 3.66901 10.4514 3.66901 10.4355C3.64698 10.3825 3.62494 10.3243 3.58638 10.2925C3.54231 10.2608 3.48722 10.2502 3.43214 10.2608C3.36053 10.2713 3.30544 10.2978 3.2779 10.3455C3.20628 10.4567 3.26137 10.642 3.29993 10.7426L3.30544 10.7637L3.28341 10.769C2.99145 10.8484 2.68296 10.769 2.47364 10.552C2.42957 10.5043 2.39101 10.4567 2.35796 10.4037C2.34694 10.3825 2.33592 10.3614 2.3249 10.3402C2.30838 10.3084 2.29185 10.2766 2.27533 10.2449C2.24227 10.1972 2.19821 10.1655 2.14863 10.1443C2.09354 10.1125 2.03295 10.1072 1.97235 10.1178C1.92828 10.139 1.88421 10.176 1.85667 10.2237C1.81811 10.2766 1.78506 10.3296 1.76302 10.3931C1.72997 10.5149 1.80709 10.6367 1.8787 10.7108C2.04947 10.8802 2.28083 10.9861 2.52872 11.0126C2.80966 11.0496 3.10162 11.0073 3.37154 10.9543L3.38807 10.949L3.39358 10.9596C3.54231 11.1926 3.80122 11.3355 3.99402 11.415C4.21987 11.505 4.46225 11.542 4.70463 11.5314H4.72116L4.74319 11.6162C4.75972 11.6797 4.78175 11.7485 4.79277 11.8173C4.83133 12.0027 4.84786 12.2674 4.69361 12.4421L4.67709 12.4633L4.63302 12.3944C4.53937 12.2515 4.43471 12.1138 4.26394 12.098C4.21436 12.0927 4.1703 12.1085 4.13724 12.1403C4.07114 12.1985 4.05461 12.315 4.06012 12.3997C4.07665 12.5586 4.15377 12.7068 4.27496 12.818C4.40717 12.9345 4.56692 13.0245 4.73768 13.0774C4.93049 13.141 5.1288 13.1939 5.32711 13.2257C5.66313 13.2733 6.00467 13.268 6.33519 13.2045H6.3462L6.35171 13.2098C6.49494 13.3528 6.65469 13.4692 6.83096 13.5592L6.86402 13.5751C6.9797 13.6334 7.10089 13.6916 7.19453 13.7816C7.19453 13.7816 7.20004 13.7869 7.20555 13.7922C7.26615 13.8557 7.31572 13.9351 7.34327 14.0199V14.0252V14.0304L7.32123 15.6612C7.32123 15.6453 7.32674 15.6665 7.33776 15.6823Z" fill="white"/>
<path d="M7.50826 16C7.47521 16 7.44216 16 7.40911 16C7.38707 16 7.35402 16 7.32097 15.9947H7.29343C7.23283 15.9894 7.17224 15.9788 7.11164 15.9683L7.05105 15.9577C6.82519 15.9153 6.61036 15.8359 6.41205 15.7194L1.09071 12.7651C0.418656 12.3945 0 11.7009 0 10.9544V5.04569C0 4.88156 0.0220345 4.71743 0.0605949 4.5586C0.0605949 4.5533 0.0605949 4.54801 0.0605949 4.54271V4.53742L0.0716122 4.50036C0.0881381 4.44741 0.104664 4.38917 0.126698 4.33623C0.148733 4.27799 0.170768 4.21975 0.198311 4.1668C0.209328 4.14033 0.220345 4.11386 0.236871 4.09268C0.253397 4.06621 0.264414 4.03973 0.28094 4.00797L0.297466 3.9762C0.336026 3.90737 0.385604 3.84384 0.435182 3.7803C0.611458 3.55793 0.831803 3.36733 1.0852 3.22968L6.40654 0.275341C7.07859 -0.100569 7.9159 -0.100569 8.58795 0.275341L13.9093 3.22968C14.1517 3.36204 14.361 3.53676 14.5318 3.74854L14.5483 3.76971C14.5593 3.7856 14.5703 3.79619 14.5813 3.81207C14.6089 3.84384 14.6254 3.87031 14.6364 3.88619L14.6474 3.89678C14.6805 3.94443 14.708 3.98679 14.7301 4.02915C14.7356 4.03973 14.7466 4.05562 14.7521 4.06621C14.7686 4.09268 14.7797 4.11915 14.7962 4.14563C14.8127 4.1721 14.8237 4.20386 14.8347 4.23034C14.8513 4.27269 14.8678 4.31505 14.8843 4.35211C14.9174 4.44741 14.9449 4.54271 14.9669 4.63801C14.9945 4.76508 15.0055 4.90274 15.0055 5.0351V10.9438C15.0055 11.6903 14.5869 12.3839 13.9203 12.7598L8.59346 15.7194C8.38414 15.8359 8.15277 15.9206 7.9159 15.963C7.87734 15.9683 7.83878 15.9736 7.80022 15.9841C7.75615 15.9894 7.71208 15.9947 7.67352 15.9947H7.65149C7.64047 15.9947 7.62945 15.9947 7.61844 15.9947C7.57988 16 7.54132 16 7.50826 16ZM7.65149 15.9947C7.64598 15.9947 7.64598 15.9947 7.65149 15.9947V15.9947ZM7.41462 15.4176H7.43114C7.48072 15.4229 7.5303 15.4229 7.57988 15.4176H7.59089C7.60191 15.4176 7.61844 15.4176 7.62945 15.4123C7.657 15.4123 7.67903 15.407 7.70657 15.407C7.73412 15.4017 7.76717 15.3965 7.79471 15.3912C7.96548 15.3594 8.13074 15.3011 8.28498 15.2164L13.6063 12.2621C14.0911 11.9921 14.3941 11.4891 14.3885 10.9544V5.04569C14.3885 4.95039 14.3775 4.84979 14.361 4.75449C14.3445 4.68566 14.3279 4.61684 14.3059 4.5533C14.2949 4.52683 14.2839 4.49506 14.2674 4.4633C14.2563 4.44212 14.2508 4.42623 14.2398 4.40506C14.2288 4.38388 14.2178 4.36799 14.2068 4.34682C14.1957 4.33093 14.1902 4.31505 14.1792 4.29917C14.1682 4.27269 14.1517 4.25151 14.1296 4.21975C14.1241 4.21445 14.1186 4.20386 14.1131 4.19857C14.1076 4.19328 14.1076 4.18798 14.1021 4.17739C14.0856 4.16151 14.0746 4.14033 14.058 4.12445L14.0415 4.10327C13.9203 3.94973 13.7661 3.82795 13.5953 3.73265L8.27396 0.778319C7.7892 0.508299 7.18325 0.508299 6.69849 0.778319L1.38817 3.73795C1.20639 3.83854 1.04664 3.9762 0.919941 4.13504C0.88689 4.17739 0.853838 4.22504 0.826295 4.2674L0.815277 4.28858C0.80426 4.30975 0.787734 4.33623 0.776717 4.35741L0.771208 4.3627C0.7657 4.37858 0.754682 4.39447 0.749174 4.41035L0.743665 4.41564C0.727139 4.45271 0.710613 4.49506 0.694087 4.53212V4.53742C0.68307 4.56919 0.672053 4.59566 0.661036 4.62742C0.661036 4.63801 0.655527 4.6539 0.650018 4.66449L0.64451 4.68037C0.622475 4.80214 0.605949 4.92392 0.605949 5.04569V10.9544C0.605949 11.4944 0.908924 11.9974 1.39368 12.2674L6.71502 15.2217C6.85824 15.3011 7.01249 15.3594 7.17775 15.3912L7.21631 15.3965C7.25487 15.4017 7.29343 15.407 7.33199 15.4123H7.37055L7.39258 15.4176C7.4036 15.4176 7.40911 15.4176 7.41462 15.4176Z" fill="white"/>
</g>
<defs>
<clipPath id="clip0_103_8621">
<rect width="15" height="16" fill="white"/>
</clipPath>
</defs>
</svg>
