<svg width="16" height="16" viewBox="0 0 16 16" fill="none" xmlns="http://www.w3.org/2000/svg">
<path fill-rule="evenodd" clip-rule="evenodd" d="M5.08912 1.18006C5.31119 1.67639 5.68617 2.25655 6.06541 2.6718C6.67564 2.47788 7.32545 2.37327 7.99961 2.37327C11.5342 2.37327 14.3996 5.24882 14.3996 8.79602C14.3996 12.3431 11.5342 15.2187 7.99961 15.2187C4.46499 15.2187 1.59961 12.3431 1.59961 8.79602C1.59961 7.13769 2.22585 5.62619 3.25395 4.48664C2.98291 3.93335 2.51443 3.35972 2.07915 2.98419C1.87119 2.80478 1.85521 2.43619 2.08224 2.28181L4.19744 0.843474C4.45635 0.667417 4.96102 0.893738 5.08912 1.18006ZM5.31263 8.44306C4.04378 8.3481 3.251 9.74826 3.82023 10.8903C4.58651 12.4275 6.17023 13.4831 7.99961 13.4831C10.579 13.4831 12.6698 11.3847 12.6698 8.79626C12.6698 7.06095 11.7302 5.54591 10.3335 4.73571C10.0594 4.57667 9.70297 4.67378 9.60793 4.97693L9.27073 6.05275C8.78865 7.59042 7.31537 8.59282 5.71354 8.47306L5.31263 8.44306Z" fill="white"/>
</svg>
