<svg width="40" height="44" viewBox="0 0 40 44" fill="none" xmlns="http://www.w3.org/2000/svg">
<rect y="0.000183105" width="40" height="44" rx="2" fill="#B43B35"/>
<path d="M7.68 13.2242L5.632 17.0002H4.24L10.24 6.12018H16.864V17.0002H10.112V13.2242H7.68ZM10.112 12.1682V8.68018L8.16 12.1682H10.112Z" fill="#B5C4E3"/>
<g clip-path="url(#clip0_103_8858)">
<path d="M32.5447 22.0003C29.7914 21.9474 29.1421 24.0871 29.0122 25.0908C28.8564 24.0871 28.233 21.9474 25.4797 22.0003C21.8434 22.0795 21.3758 26.2267 22.6226 28.3135C23.8953 30.4003 24.5447 31.0606 25.8174 32.4078C27.0122 33.6493 28.4408 35.0757 28.9603 35.9474C28.9603 35.9474 28.9862 36.0531 29.0122 36.0267C29.0382 36.0531 29.0642 35.9474 29.0642 35.9474C29.5836 35.0757 31.0122 33.6757 32.207 32.4078C33.4797 31.0871 34.1291 30.4003 35.4018 28.3135C36.6486 26.2267 36.1551 22.0795 32.5447 22.0003Z" fill="#B5C4E3"/>
</g>
<defs>
<clipPath id="clip0_103_8858">
<rect width="14" height="14" fill="white" transform="translate(22 22.0002)"/>
</clipPath>
</defs>
</svg>
