<svg width="16" height="16" viewBox="0 0 16 16" fill="none" xmlns="http://www.w3.org/2000/svg">
<path d="M4.25 7.4V9H11.75V7.4C11.75 5.912 12.71 4.672 14 4.312V3.4C14 2.08 12.9875 1 11.75 1H4.25C3.0125 1 2 2.08 2 3.4V4.312C3.29 4.672 4.25 5.912 4.25 7.4Z" fill="#4E5E80"/>
<path d="M14.5455 6C13.7455 6 13.0909 6.675 13.0909 7.5V10.5H2.90909V7.5C2.90909 6.675 2.25455 6 1.45455 6C0.654545 6 0 6.675 0 7.5V11.25C0 12.4875 0.981818 13.5 2.18182 13.5V14.25C2.18182 14.6625 2.50909 15 2.90909 15C3.30909 15 3.63636 14.6625 3.63636 14.25V13.5H12.3636V14.25C12.3636 14.6625 12.6909 15 13.0909 15C13.4909 15 13.8182 14.6625 13.8182 14.25V13.5C15.0182 13.5 16 12.4875 16 11.25V7.5C16 6.675 15.3455 6 14.5455 6Z" fill="#4E5E80"/>
</svg>
