<svg width="30" height="30" viewBox="0 0 30 30" fill="none" xmlns="http://www.w3.org/2000/svg">
<circle cx="15" cy="15" r="15" fill="#313B52"/>
<path d="M20.36 8H9.64C8.736 8 8 8.69 8 9.545V19.685C8 20.54 8.736 21.23 9.64 21.23H18.712L18.288 19.8425L19.312 20.735L20.28 21.575L22 23V9.545C22 8.69 21.264 8 20.36 8ZM17.272 17.795C17.272 17.795 16.984 17.4725 16.744 17.1875C17.792 16.91 18.192 16.295 18.192 16.295C17.864 16.4975 17.552 16.64 17.272 16.7375C16.872 16.895 16.488 17 16.112 17.06C15.344 17.195 14.64 17.1575 14.04 17.0525C13.584 16.97 13.192 16.85 12.864 16.73C12.68 16.6625 12.48 16.58 12.28 16.475C12.256 16.46 12.232 16.4525 12.208 16.4375C12.192 16.43 12.184 16.4225 12.176 16.415C12.032 16.34 11.952 16.2875 11.952 16.2875C11.952 16.2875 12.336 16.8875 13.352 17.1725C13.112 17.4575 12.816 17.795 12.816 17.795C11.048 17.7425 10.376 16.655 10.376 16.655C10.376 14.24 11.528 12.2825 11.528 12.2825C12.68 11.4725 13.776 11.495 13.776 11.495L13.856 11.585C12.416 11.975 11.752 12.5675 11.752 12.5675C11.752 12.5675 11.928 12.4775 12.224 12.35C13.08 11.9975 13.76 11.9 14.04 11.8775C14.088 11.87 14.128 11.8625 14.176 11.8625C14.664 11.8025 15.216 11.7875 15.792 11.8475C16.552 11.93 17.368 12.14 18.2 12.5675C18.2 12.5675 17.568 12.005 16.208 11.615L16.32 11.495C16.32 11.495 17.416 11.4725 18.568 12.2825C18.568 12.2825 19.72 14.24 19.72 16.655C19.72 16.655 19.04 17.7425 17.272 17.795ZM13.552 14.2925C13.096 14.2925 12.736 14.6675 12.736 15.125C12.736 15.5825 13.104 15.9575 13.552 15.9575C14.008 15.9575 14.368 15.5825 14.368 15.125C14.376 14.6675 14.008 14.2925 13.552 14.2925ZM16.472 14.2925C16.016 14.2925 15.656 14.6675 15.656 15.125C15.656 15.5825 16.024 15.9575 16.472 15.9575C16.928 15.9575 17.288 15.5825 17.288 15.125C17.288 14.6675 16.928 14.2925 16.472 14.2925Z" fill="#B5C4E3"/>
</svg>
