<svg width="30" height="30" viewBox="0 0 30 30" fill="none" xmlns="http://www.w3.org/2000/svg">
<rect width="30" height="30" rx="6" fill="#222A3A"/>
<path d="M14.0024 22C13.7198 22 13.4831 21.916 13.2922 21.748C13.1007 21.5806 13.005 21.3729 13.005 21.125V15.875L7.21985 9.4C6.97049 9.10833 6.93325 8.80208 7.10814 8.48125C7.28236 8.16042 7.58558 8 8.0178 8H21.9819C22.4141 8 22.7176 8.16042 22.8925 8.48125C23.0667 8.80208 23.0292 9.10833 22.7798 9.4L16.9947 15.875V21.125C16.9947 21.3729 16.8993 21.5806 16.7084 21.748C16.5169 21.916 16.2799 22 15.9973 22H14.0024Z" fill="#B5C4E3"/>
</svg>
