<svg width="16" height="16" viewBox="0 0 16 16" fill="none" xmlns="http://www.w3.org/2000/svg">
<path fill-rule="evenodd" clip-rule="evenodd" d="M8 1.3335L2 6.00016V13.3335C2 13.6871 2.14048 14.0263 2.39052 14.2763C2.64057 14.5264 2.97971 14.6668 3.33333 14.6668H5V8H11V14.6668H12.6667C13.0203 14.6668 13.3594 14.5264 13.6095 14.2763C13.8595 14.0263 14 13.6871 14 13.3335V6.00016L8 1.3335Z" fill="#4E5E80"/>
<path d="M2 6.00016L1.69303 5.60549C1.57124 5.70021 1.5 5.84587 1.5 6.00016H2ZM8 1.3335L8.30697 0.93882C8.12642 0.798388 7.87358 0.798388 7.69303 0.93882L8 1.3335ZM2.39052 14.2763L2.74408 13.9228V13.9228L2.39052 14.2763ZM5 14.6668V15.1668C5.27614 15.1668 5.5 14.943 5.5 14.6668H5ZM5 8V7.5C4.72386 7.5 4.5 7.72386 4.5 8H5ZM11 8H11.5C11.5 7.72386 11.2761 7.5 11 7.5V8ZM11 14.6668H10.5C10.5 14.943 10.7239 15.1668 11 15.1668V14.6668ZM14 6.00016H14.5C14.5 5.84587 14.4288 5.70021 14.307 5.60549L14 6.00016ZM2.30697 6.39484L8.30697 1.72817L7.69303 0.93882L1.69303 5.60549L2.30697 6.39484ZM2.5 13.3335V6.00016H1.5V13.3335H2.5ZM2.74408 13.9228C2.5878 13.7665 2.5 13.5545 2.5 13.3335H1.5C1.5 13.8197 1.69315 14.286 2.03697 14.6299L2.74408 13.9228ZM3.33333 14.1668C3.11232 14.1668 2.90036 14.079 2.74408 13.9228L2.03697 14.6299C2.38079 14.9737 2.8471 15.1668 3.33333 15.1668V14.1668ZM5 14.1668H3.33333V15.1668H5V14.1668ZM5.5 14.6668V8H4.5V14.6668H5.5ZM5 8.5H11V7.5H5V8.5ZM10.5 8V14.6668H11.5V8H10.5ZM12.6667 14.1668H11V15.1668H12.6667V14.1668ZM13.2559 13.9228C13.0996 14.079 12.8877 14.1668 12.6667 14.1668V15.1668C13.1529 15.1668 13.6192 14.9737 13.963 14.6299L13.2559 13.9228ZM13.5 13.3335C13.5 13.5545 13.4122 13.7665 13.2559 13.9228L13.963 14.6299C14.3068 14.286 14.5 13.8197 14.5 13.3335H13.5ZM13.5 6.00016V13.3335H14.5V6.00016H13.5ZM7.69303 1.72817L13.693 6.39484L14.307 5.60549L8.30697 0.93882L7.69303 1.72817Z" fill="#4E5E80"/>
</svg>
