<svg width="16" height="16" viewBox="0 0 16 16" fill="none" xmlns="http://www.w3.org/2000/svg">
<path d="M16 3.625C16 2.1775 12.416 1 8 1C3.584 1 0 2.1775 0 3.625C0 4.9825 3.16 6.1075 7.2 6.235V11.25H5.88C5.224 11.25 4.64 11.625 4.392 12.195L3.6 14.0475C3.416 14.505 3.768 15 4.296 15C4.6 15 4.872 14.8275 4.984 14.565L5.76 12.75H10.24L11.016 14.565C11.128 14.8275 11.4 15 11.704 15C12.232 15 12.592 14.505 12.392 14.0475L11.6 12.195C11.36 11.625 10.768 11.25 10.12 11.25H8.8V6.235C12.84 6.1075 16 4.9825 16 3.625Z" fill="#4E5E80"/>
</svg>
