<svg width="55" height="60" viewBox="0 0 55 60" fill="none" xmlns="http://www.w3.org/2000/svg">
<path fill-rule="evenodd" clip-rule="evenodd" d="M5.17253 19.4488L5.17506 19.4506L4.86461 20.3936L0 29.7636V35.7479L0.0283538 35.7544L0.00195312 35.751L10.6717 48.6405L10.6641 48.7098L13.56 55.5907L18.3407 56.3781L18.3704 56.3678L19.2821 57.0068L22.2579 59.9999H31.6626L34.6357 57.0099L35.5745 56.3806L35.5747 56.3754L35.5826 56.3781L40.3633 55.5907L42.7916 49.9981L43.4303 49.1279L43.6503 48.8436L53.3584 36.7066L53.9831 35.7523L53.9697 35.75L53.9993 35.7479V29.7636L49.1403 20.3936L49.1331 20.3986L48.8286 19.5352L48.2776 16.378L50.6287 15.3543L53.3718 6.61417L51.2557 0H47.8857L40.9889 6.29921L30.8789 3.22835V3.23332L30.006 3.07416H23.988L23.0414 3.23909V3.22835L13.0098 6.29921L6.03463 0H2.66462L0.626936 6.61417L3.2916 15.3543L5.64277 16.378L5.17253 19.4488Z" fill="url(#paint0_linear_68_1361)"/>
<path d="M0.550781 36.6929L10.5824 49.1338L15.5983 37.7953L0.550781 36.6929Z" fill="#313B52"/>
<path d="M22.6516 32.7559H14.8143L11.2876 24.8819L4.86104 20.3937L0.00195312 29.7638V35.748L16.1467 36.9291L22.6516 32.7559Z" fill="#313B52"/>
<path d="M5.1745 19.4488L23.0434 31.8898V3.22835L13.0117 6.29921L6.0366 0H2.66659L0.628906 6.61417L3.29357 15.3543L5.64473 16.378L5.1745 19.4488Z" fill="#313B52"/>
<path d="M19.2812 57.0079L22.2594 60H31.6641L34.6422 57.0079L26.9617 54.3307L19.2812 57.0079Z" fill="#313B52"/>
<path d="M48.2795 16.378L50.6307 15.3543L53.3737 6.61417L51.2577 0H47.8877L40.9909 6.29921L30.8809 3.22835V31.8898L48.8281 19.5276L48.2795 16.378Z" fill="#313B52"/>
<path d="M30.0183 32.9921V3.07086H23.9837V32.9921L16.6167 37.7165L11.209 50L13.5602 55.5905L18.3409 56.3779L26.4916 53.5433V51.0236H25.7862L21.7109 45.2756V44.4094H26.9618H32.2128V45.2756L28.2158 51.0236H27.4321V53.5433L35.5828 56.3779L40.3635 55.5905L42.793 50L37.307 37.7165L30.0183 32.9921Z" fill="#313B52"/>
<path d="M42.7156 24.8819L39.1104 32.7559H31.3516L37.7781 36.9291L54.0012 35.748V29.7638L49.1421 20.3937L42.7156 24.8819Z" fill="#313B52"/>
<path d="M43.4201 49.1338L53.3734 36.6929L38.4043 37.7953L43.4201 49.1338Z" fill="#313B52"/>
<defs>
<linearGradient id="paint0_linear_68_1361" x1="26.9997" y1="0" x2="26.9997" y2="59.9999" gradientUnits="userSpaceOnUse">
<stop stop-color="#E7DF36"/>
<stop offset="1" stop-color="#EFB23D"/>
</linearGradient>
</defs>
</svg>
