<svg width="44" height="49" viewBox="0 0 44 49" fill="none" xmlns="http://www.w3.org/2000/svg">
<path fill-rule="evenodd" clip-rule="evenodd" d="M4.2148 15.8832L18.775 26.0433V2.63648L10.6009 5.14436L4.91727 0H2.17126L0.510885 5.40157L2.68215 12.5394L4.59797 13.3753L4.2148 15.8832ZM12.0697 26.7507H18.4557L13.1553 30.1588L0 29.1942V24.3071L3.95936 16.6549L9.19594 20.3202L12.0697 26.7507ZM8.62119 40.126L0.447025 29.9659L12.7083 30.8661L8.62119 40.126ZM18.1364 49L15.7097 46.5564L21.9681 44.3701L28.2264 46.5564L25.7997 49H18.1364ZM39.3382 13.3753L41.254 12.5394L43.4891 5.40157L41.7649 0H39.0189L33.3991 5.14436L25.1611 2.63648V26.0433L39.7852 15.9475L39.3382 13.3753ZM24.4586 2.50787V26.9436L30.3977 30.8018L34.8679 40.8333L32.8882 45.3989L28.9927 46.042L22.3512 43.727V41.6693H22.9898L26.2467 36.9751V36.2677H21.9681H17.6894V36.9751L21.0102 41.6693H21.5849V43.727L14.9434 46.042L11.0479 45.3989L9.13208 40.8333L13.5385 30.8018L19.5414 26.9436V2.50787H24.4586ZM34.8041 20.3202L31.8665 26.7507H25.5443L30.7808 30.1588L44 29.1942V24.3071L40.0406 16.6549L34.8041 20.3202ZM43.4891 29.9659L35.3788 40.126L31.2917 30.8661L43.4891 29.9659Z" fill="#B5C4E3"/>
</svg>
