<svg width="16" height="16" viewBox="0 0 16 16" fill="none" xmlns="http://www.w3.org/2000/svg">
<path fill-rule="evenodd" clip-rule="evenodd" d="M0.615386 0C0.778596 0 0.935122 0.0602037 1.05053 0.167367C1.16594 0.274531 1.23077 0.419876 1.23077 0.571428L1.23077 15.4286C1.23077 15.5801 1.16593 15.7255 1.05053 15.8326C0.935121 15.9398 0.778595 16 0.615385 16C0.452175 16 0.295649 15.9398 0.180242 15.8326C0.0648349 15.7255 0 15.5801 0 15.4286V0.571428C0 0.419876 0.0648355 0.274531 0.180243 0.167367C0.29565 0.0602037 0.452176 0 0.615386 0ZM12.3077 13.7143L12.3077 2.28571C12.3077 1.67951 12.0484 1.09813 11.5867 0.669471C11.1251 0.240816 10.499 0 9.84616 0H6.15385C5.50101 0 4.8749 0.240816 4.41328 0.66947C3.95165 1.09812 3.69231 1.67951 3.69231 2.28571L3.69231 13.7143C3.69231 14.3205 3.95165 14.9019 4.41328 15.3305C4.8749 15.7592 5.50101 16 6.15385 16H9.84615C10.499 16 11.1251 15.7592 11.5867 15.3305C12.0484 14.9019 12.3077 14.3205 12.3077 13.7143ZM15.8198 0.167368C15.7044 0.0602044 15.5478 0 15.3846 0C15.2214 0 15.0649 0.0602043 14.9495 0.167368C14.8341 0.274532 14.7692 0.419877 14.7692 0.571429L14.7692 15.4286C14.7692 15.5801 14.8341 15.7255 14.9495 15.8326C15.0649 15.9398 15.2214 16 15.3846 16C15.5478 16 15.7044 15.9398 15.8198 15.8326C15.9352 15.7255 16 15.5801 16 15.4286L16 0.571429C16 0.419877 15.9352 0.274532 15.8198 0.167368ZM6 9C6.55228 9 7 8.55229 7 8C7 7.44772 6.55228 7 6 7C5.44771 7 5 7.44772 5 8C5 8.55229 5.44771 9 6 9Z" fill="#B5C4E3"/>
</svg>
