<svg width="30" height="30" viewBox="0 0 30 30" fill="none" xmlns="http://www.w3.org/2000/svg">
<circle cx="15" cy="15" r="15" fill="#313B52"/>
<path d="M24 9.58333C23.4286 9.83333 22.7755 10 22.1225 10.0833C22.7755 9.66667 23.3469 9 23.5918 8.25C22.9388 8.66667 22.2857 8.91667 21.4694 9.08334C20.898 8.41667 20 8 19.102 8C17.3061 8 15.8367 9.5 15.8367 11.3333C15.8367 11.5833 15.8367 11.8333 15.9184 12.0833C13.2245 11.9167 10.7755 10.5833 9.14285 8.58333C8.89795 9.08333 8.73469 9.66666 8.73469 10.25C8.73469 11.4167 9.30612 12.4167 10.2041 13C9.63265 13 9.14285 12.8333 8.73469 12.5833C8.73469 14.1667 9.87754 15.5833 11.3469 15.8333C11.102 15.9167 10.7755 15.9167 10.449 15.9167C10.2041 15.9167 10.0408 15.9167 9.79592 15.8333C10.2041 17.1667 11.4286 18.1667 12.898 18.1667C11.7551 19.0833 10.3673 19.5833 8.81633 19.5833C8.57143 19.5833 8.32653 19.5833 8 19.5C9.46939 20.4167 11.1837 21 13.0612 21C19.102 21 22.3673 15.9167 22.3673 11.5V11.0833C23.0204 10.8333 23.5918 10.25 24 9.58333Z" fill="#B5C4E3"/>
</svg>
