<svg width="16" height="14" viewBox="0 0 16 14" fill="none" xmlns="http://www.w3.org/2000/svg">
<g clip-path="url(#clip0_140_6511)">
<path d="M2.26814 1.96H13.6967C13.8302 1.95994 13.9636 1.96824 14.096 1.98485C14.0511 1.67607 13.9429 1.3794 13.7778 1.11272C13.6128 0.846035 13.3943 0.614871 13.1357 0.433161C12.877 0.251451 12.5835 0.122959 12.2727 0.0554312C11.962 -0.0120965 11.6406 -0.0172607 11.3278 0.0402498L1.92885 1.6128H1.91814C1.32816 1.72336 0.803516 2.05048 0.451351 2.52735C0.98192 2.15751 1.61704 1.95918 2.26814 1.96ZM13.6967 2.8H2.26814C1.66213 2.80065 1.08113 3.03686 0.652623 3.4568C0.224112 3.87674 -0.0169164 4.44611 -0.0175781 5.04V11.76C-0.0169164 12.3539 0.224112 12.9233 0.652623 13.3432C1.08113 13.7631 1.66213 13.9994 2.26814 14H13.6967C14.3027 13.9994 14.8837 13.7631 15.3122 13.3432C15.7407 12.9233 15.9818 12.3539 15.9824 11.76V5.04C15.9818 4.44611 15.7407 3.87674 15.3122 3.4568C14.8837 3.03686 14.3027 2.80065 13.6967 2.8ZM12.0003 9.52C11.7742 9.52 11.5533 9.45431 11.3653 9.33125C11.1774 9.20818 11.0309 9.03326 10.9444 8.82861C10.8579 8.62395 10.8353 8.39876 10.8794 8.1815C10.9235 7.96424 11.0323 7.76468 11.1922 7.60804C11.352 7.45141 11.5556 7.34474 11.7773 7.30152C11.999 7.25831 12.2288 7.28048 12.4376 7.36525C12.6465 7.45003 12.825 7.59358 12.9505 7.77776C13.0761 7.96194 13.1431 8.17848 13.1431 8.4C13.1431 8.69704 13.0227 8.98192 12.8084 9.19196C12.5941 9.402 12.3034 9.52 12.0003 9.52Z" fill="#222A3A"/>
<path d="M0 7.40251V3.92001C0 3.16156 0.428571 1.89001 1.91607 1.61456C3.17857 1.38251 4.42857 1.38251 4.42857 1.38251C4.42857 1.38251 5.25 1.94251 4.57143 1.94251C3.89286 1.94251 3.91071 2.80001 4.57143 2.80001C5.23214 2.80001 4.57143 3.62251 4.57143 3.62251L1.91071 6.58001L0 7.40251Z" fill="#222A3A"/>
</g>
<defs>
<clipPath id="clip0_140_6511">
<rect width="16" height="14" fill="white"/>
</clipPath>
</defs>
</svg>
